<?xml version="1.0" encoding="UTF-8"?>
<!DOCTYPE svg PUBLIC "-//W3C//DTD SVG 1.1//EN" "http://www.w3.org/Graphics/SVG/1.1/DTD/svg11.dtd">
<svg version="1.1" xmlns="http://www.w3.org/2000/svg" xmlns:xlink="http://www.w3.org/1999/xlink" x="0" y="0" width="612" height="792" viewBox="0, 0, 612, 792">
  <defs>
    <clipPath id="Clip_1">
      <path d="M173.34,591.548 C173.86,591.548 174.281,591.969 174.281,592.489 L174.281,629.661 C174.281,630.18 173.86,630.602 173.34,630.602 L150.674,630.602 C150.154,630.602 149.733,630.18 149.733,629.661 L149.733,592.489 C149.733,591.969 150.154,591.548 150.674,591.548 L173.34,591.548 z"/>
    </clipPath>
    <filter id="Shadow_2">
      <feGaussianBlur in="SourceAlpha" stdDeviation="5"/>
      <feOffset dx="0" dy="0" result="offsetblur"/>
      <feFlood flood-color="#FFFFFF"/>
      <feComposite in2="offsetblur" operator="in"/>
    </filter>
    <linearGradient id="Gradient_1" gradientUnits="userSpaceOnUse" x1="149.006" y1="207.873" x2="157.405" y2="246.126">
      <stop offset="0" stop-color="#FFFFFF"/>
      <stop offset="0.261" stop-color="#000000"/>
    </linearGradient>
    <linearGradient id="Gradient_2" gradientUnits="userSpaceOnUse" x1="149.006" y1="207.873" x2="157.405" y2="246.126">
      <stop offset="0" stop-color="#FFFFFF"/>
      <stop offset="0.261" stop-color="#000000"/>
    </linearGradient>
    <linearGradient id="Gradient_3" gradientUnits="userSpaceOnUse" x1="149.006" y1="207.873" x2="157.405" y2="246.126">
      <stop offset="0" stop-color="#FFFFFF"/>
      <stop offset="0.261" stop-color="#000000"/>
    </linearGradient>
    <linearGradient id="Gradient_4" gradientUnits="userSpaceOnUse" x1="149.006" y1="207.873" x2="157.405" y2="246.126">
      <stop offset="0" stop-color="#FFFFFF"/>
      <stop offset="0.261" stop-color="#000000"/>
    </linearGradient>
    <linearGradient id="Gradient_5" gradientUnits="userSpaceOnUse" x1="149.006" y1="207.873" x2="157.405" y2="246.126">
      <stop offset="0" stop-color="#FFFFFF"/>
      <stop offset="0.261" stop-color="#000000"/>
    </linearGradient>
    <linearGradient id="Gradient_6" gradientUnits="userSpaceOnUse" x1="149.006" y1="207.873" x2="157.405" y2="246.126">
      <stop offset="0" stop-color="#FFFFFF"/>
      <stop offset="0.261" stop-color="#000000"/>
    </linearGradient>
    <linearGradient id="Gradient_7" gradientUnits="userSpaceOnUse" x1="149.006" y1="207.873" x2="157.405" y2="246.126">
      <stop offset="0" stop-color="#FFFFFF"/>
      <stop offset="0.261" stop-color="#000000"/>
    </linearGradient>
    <linearGradient id="Gradient_8" gradientUnits="userSpaceOnUse" x1="149.006" y1="207.873" x2="157.405" y2="246.126">
      <stop offset="0" stop-color="#FFFFFF"/>
      <stop offset="0.261" stop-color="#000000"/>
    </linearGradient>
    <linearGradient id="Gradient_9" gradientUnits="userSpaceOnUse" x1="149.006" y1="207.873" x2="157.405" y2="246.126">
      <stop offset="0" stop-color="#FFFFFF"/>
      <stop offset="0.261" stop-color="#000000"/>
    </linearGradient>
    <linearGradient id="Gradient_10" gradientUnits="userSpaceOnUse" x1="149.006" y1="207.873" x2="157.405" y2="246.126">
      <stop offset="0" stop-color="#FFFFFF"/>
      <stop offset="0.261" stop-color="#000000"/>
    </linearGradient>
    <linearGradient id="Gradient_11" gradientUnits="userSpaceOnUse" x1="149.006" y1="207.873" x2="157.405" y2="246.126">
      <stop offset="0" stop-color="#FFFFFF"/>
      <stop offset="0.261" stop-color="#000000"/>
    </linearGradient>
    <linearGradient id="Gradient_12" gradientUnits="userSpaceOnUse" x1="149.006" y1="207.873" x2="157.405" y2="246.126">
      <stop offset="0" stop-color="#FFFFFF"/>
      <stop offset="0.261" stop-color="#000000"/>
    </linearGradient>
    <linearGradient id="Gradient_13" gradientUnits="userSpaceOnUse" x1="149.006" y1="207.873" x2="157.405" y2="246.126">
      <stop offset="0" stop-color="#FFFFFF"/>
      <stop offset="0.261" stop-color="#000000"/>
    </linearGradient>
    <linearGradient id="Gradient_14" gradientUnits="userSpaceOnUse" x1="149.006" y1="207.873" x2="157.405" y2="246.126">
      <stop offset="0" stop-color="#FFFFFF"/>
      <stop offset="0.261" stop-color="#000000"/>
    </linearGradient>
    <linearGradient id="Gradient_15" gradientUnits="userSpaceOnUse" x1="149.006" y1="207.873" x2="157.405" y2="246.126">
      <stop offset="0" stop-color="#FFFFFF"/>
      <stop offset="0.261" stop-color="#000000"/>
    </linearGradient>
    <linearGradient id="Gradient_16" gradientUnits="userSpaceOnUse" x1="149.006" y1="207.873" x2="157.405" y2="246.126">
      <stop offset="0" stop-color="#FFFFFF"/>
      <stop offset="0.261" stop-color="#000000"/>
    </linearGradient>
    <linearGradient id="Gradient_17" gradientUnits="userSpaceOnUse" x1="149.006" y1="207.873" x2="157.405" y2="246.126">
      <stop offset="0" stop-color="#FFFFFF"/>
      <stop offset="0.261" stop-color="#000000"/>
    </linearGradient>
  </defs>
  <g id="Layer_1">
    <g id="Coffeemachine">
      <g id="path3680">
        <path d="M484.765,536.731 C489.582,534.737 497.614,533.995 498.23,528.384 C499.437,517.397 500.644,506.411 501.85,495.424 C502.721,487.499 503.591,479.575 504.462,471.649 C504.553,470.815 528.63,471.454 531.088,471.454 C542.332,471.454 542.742,498.076 544.161,505.445 C548.394,527.437 552.628,549.428 556.86,571.42 C558.124,577.983 557.903,579.144 563.21,583.389 C567.533,586.847 574.829,584.988 574.727,578.967 C574.444,562.274 574.162,545.582 573.881,528.889 C573.478,505.085 573.076,481.279 572.673,457.476 C572.527,448.782 575.49,429.846 568.516,423.176 C558.549,413.642 533.564,420.251 521.84,421.481 C511.401,422.577 500.963,424.757 490.524,425.853 C481.431,426.806 482.64,429.249 479.268,438.328 C474.78,450.41 477.368,466.565 478.724,479.425 C480.736,498.526 482.75,517.63 484.765,536.731 z" fill="#000000"/>
        <path d="M484.765,536.731 C489.582,534.737 497.614,533.995 498.23,528.384 C499.437,517.397 500.644,506.411 501.85,495.424 C502.721,487.499 503.591,479.575 504.462,471.649 C504.553,470.815 528.63,471.454 531.088,471.454 C542.332,471.454 542.742,498.076 544.161,505.445 C548.394,527.437 552.628,549.428 556.86,571.42 C558.124,577.983 557.903,579.144 563.21,583.389 C567.533,586.847 574.829,584.988 574.727,578.967 C574.444,562.274 574.162,545.582 573.881,528.889 C573.478,505.085 573.076,481.279 572.673,457.476 C572.527,448.782 575.49,429.846 568.516,423.176 C558.549,413.642 533.564,420.251 521.84,421.481 C511.401,422.577 500.963,424.757 490.524,425.853 C481.431,426.806 482.64,429.249 479.268,438.328 C474.78,450.41 477.368,466.565 478.724,479.425 C480.736,498.526 482.75,517.63 484.765,536.731 z" fill-opacity="0" stroke="#FFFFFF" stroke-width="1.882" stroke-linejoin="round"/>
      </g>
      <g id="polygon3682">
        <path d="M19.893,767.236 L528.51,767.236 L543.242,744.802 L543.469,705.363 L500.858,621.5 L239.296,621.5 L239.296,297.835 L509.017,297.835 L533.269,258.166 L533.269,190.853 L471.845,99.508 L61.598,99.508 L13.546,190.853 L13.546,258.166 L38.025,298.288 L38.025,623.313 L4.707,706.723 L4.934,745.931 z" fill="#880000"/>
        <path d="M19.893,767.236 L528.51,767.236 L543.242,744.802 L543.469,705.363 L500.858,621.5 L239.296,621.5 L239.296,297.835 L509.017,297.835 L533.269,258.166 L533.269,190.853 L471.845,99.508 L61.598,99.508 L13.546,190.853 L13.546,258.166 L38.025,298.288 L38.025,623.313 L4.707,706.723 L4.934,745.931 z" fill-opacity="0" stroke="#000000" stroke-width="3" stroke-linecap="round" stroke-linejoin="round"/>
      </g>
      <g id="rect3684">
        <path d="M94.236,544.66 L185.579,544.66 L185.579,643.259 L94.236,643.259 z" fill="#281F1C"/>
        <path d="M94.236,544.66 L185.579,544.66 L185.579,643.259 L94.236,643.259 z" fill-opacity="0" stroke="#000000" stroke-width="1.882" stroke-linejoin="round"/>
      </g>
      <g id="rect3686">
        <path d="M103.983,585.911 L133.221,585.911 L133.221,634.416 L103.983,634.416 z" fill="#565656"/>
        <path d="M103.983,585.911 L133.221,585.911 L133.221,634.416 L103.983,634.416 z" fill-opacity="0" stroke="#FFFFFF" stroke-width="1.882" stroke-linejoin="round"/>
      </g>
      <g id="rect3688">
        <path d="M107.382,592.036 L129.595,592.036 L129.595,629.207 L107.382,629.207 z" fill="#C50021"/>
        <path d="M107.382,592.036 L129.595,592.036 L129.595,629.207 L107.382,629.207 z" fill-opacity="0" stroke="#000000" stroke-width="1.882" stroke-linejoin="round"/>
      </g>
      <g id="rect3690">
        <path d="M146.821,585.911 L176.286,585.911 L176.286,634.416 L146.821,634.416 z" fill="#565656"/>
        <path d="M146.821,585.911 L176.286,585.911 L176.286,634.416 L146.821,634.416 z" fill-opacity="0" stroke="#FFFFFF" stroke-width="1.882" stroke-linejoin="round"/>
      </g>
      <g id="rect3692">
        <path d="M150.674,592.489 L173.34,592.489 L173.34,629.661 L150.674,629.661 z" fill="#008837"/>
        <path d="M150.674,592.489 L173.34,592.489 L173.34,629.661 L150.674,629.661 z" fill-opacity="0" stroke="#000000" stroke-width="1.882" stroke-linejoin="round"/>
        <g>
          <path d="M138.733,580.548 L185.281,580.548 L185.281,641.602 L138.733,641.602 z M173.34,591.548 L150.674,591.548 C150.154,591.548 149.733,591.969 149.733,592.489 L149.733,629.661 C149.733,630.18 150.154,630.602 150.674,630.602 L173.34,630.602 C173.86,630.602 174.281,630.18 174.281,629.661 L174.281,592.489 C174.281,591.969 173.86,591.548 173.34,591.548 z" fill="rgba(0,0,0,0.75)" clip-path="url(#Clip_1)" filter="url(#Shadow_2)"/>
          <path d="M138.733,583.048 L185.281,583.048 L182.781,580.548 L182.781,641.602 L185.281,639.102 L138.733,639.102 L141.233,641.602 L141.233,580.548 L138.733,583.048 z M138.733,578.048 C137.352,578.048 136.233,579.167 136.233,580.548 L136.233,641.602 C136.233,642.982 137.352,644.102 138.733,644.102 L185.281,644.102 C186.662,644.102 187.781,642.982 187.781,641.602 L187.781,580.548 C187.781,579.167 186.662,578.048 185.281,578.048 L138.733,578.048 z M173.34,589.048 L150.674,589.048 C148.773,589.048 147.233,590.589 147.233,592.489 L147.233,629.661 C147.233,631.561 148.773,633.102 150.674,633.102 L173.34,633.102 C175.241,633.102 176.782,631.561 176.781,629.66 L176.781,592.489 C176.782,590.589 175.241,589.048 173.341,589.048 z M173.34,594.048 C172.479,594.048 171.781,593.35 171.781,592.489 L171.781,629.661 C171.781,628.8 172.479,628.102 173.34,628.102 L150.674,628.102 C151.535,628.102 152.233,628.8 152.233,629.661 L152.233,592.489 C152.233,593.35 151.535,594.048 150.674,594.048 L173.34,594.048 z" fill="rgba(0,0,0,0.75)" clip-path="url(#Clip_1)" filter="url(#Shadow_2)"/>
        </g>
      </g>
      <g id="rect3694">
        <path d="M104.436,552.597 L176.967,552.597 L176.967,581.378 L104.436,581.378 z" fill="#565656"/>
        <path d="M104.436,552.597 L176.967,552.597 L176.967,581.378 L104.436,581.378 z" fill-opacity="0" stroke="#FFFFFF" stroke-width="1.882" stroke-linejoin="round"/>
      </g>
      <g id="rect3696">
        <path d="M113.502,557.13 L168.806,557.13 L168.806,575.262 L113.502,575.262 z" fill="#A89187"/>
        <path d="M113.502,557.13 L168.806,557.13 L168.806,575.262 L113.502,575.262 z" fill-opacity="0" stroke="#000000" stroke-width="1.882" stroke-linejoin="round"/>
      </g>
      <g id="path3698">
        <path d="M117.809,557.806 L117.809,573.219 L140.773,573.219 C140.773,567.938 140.773,563.065 140.773,557.806 L117.809,557.806 z" fill="#281F1B"/>
        <path d="M117.809,557.806 L117.809,573.219 L140.773,573.219 C140.773,567.938 140.773,563.065 140.773,557.806 L117.809,557.806 z" fill-opacity="0" stroke="#000000" stroke-width="1.882" stroke-linejoin="round"/>
      </g>
      <g id="path3700">
        <path d="M164.953,557.806 L140.773,557.806 C140.773,563.065 140.773,567.938 140.773,573.219 L164.953,573.219 L164.953,557.806 z" fill="#494949"/>
        <path d="M164.953,557.806 L140.773,557.806 C140.773,563.065 140.773,567.938 140.773,573.219 L164.953,573.219 L164.953,557.806 z" fill-opacity="0" stroke="#000000" stroke-width="1.882" stroke-linejoin="round"/>
      </g>
      <g id="polygon3702" opacity="0.62">
        <path d="M259.153,408.622 L276.695,443.118 L276.695,469.188 L265.361,639.179 L266.041,645.526 L268.309,652.78 L272.388,658.894 L278.28,665.472 L285.987,671.364 L298.227,678.164 L315,684.058 L334.946,689.267 L359.424,692.439 L382.77,692.439 L405.208,691.534 L420.394,689.267 L436.487,685.64 L449.18,681.791 L466.405,674.307 L478.418,665.472 L484.765,659.579 L489.525,653.002 L492.47,647.339 L494.057,641.215 L494.964,634.416 L477.738,469.188 L477.738,441.988 L487.938,412.292 L487.032,407.307 z" fill="#FFFFFF"/>
        <path d="M259.153,408.622 L276.695,443.118 L276.695,469.188 L265.361,639.179 L266.041,645.526 L268.309,652.78 L272.388,658.894 L278.28,665.472 L285.987,671.364 L298.227,678.164 L315,684.058 L334.946,689.267 L359.424,692.439 L382.77,692.439 L405.208,691.534 L420.394,689.267 L436.487,685.64 L449.18,681.791 L466.405,674.307 L478.418,665.472 L484.765,659.579 L489.525,653.002 L492.47,647.339 L494.057,641.215 L494.964,634.416 L477.738,469.188 L477.738,441.988 L487.938,412.292 L487.032,407.307 z" fill-opacity="0" stroke="#000000" stroke-width="3" stroke-linecap="round" stroke-linejoin="round"/>
      </g>
      <g id="path3704" opacity="0.53">
        <path d="M381.637,442.441 C410.465,442.441 443.445,441.274 470.033,428.842 C480.359,424.014 496.379,412.388 482.011,401.614 C472.464,395.406 455.831,389.259 439.434,386.001 C409.446,380.536 380.059,381.698 349.854,381.698 C323.307,381.698 298.844,391.434 273.673,398.4 C269.557,399.539 259.868,401.578 258.336,406.176 C257.241,409.458 268.043,414.434 270.688,416.487 C280.161,423.839 290.478,428.995 301.627,433.144 C327.135,442.64 354.762,442.441 381.637,442.441 z" fill="#FFFFFF"/>
        <path d="M381.637,442.441 C410.465,442.441 443.445,441.274 470.033,428.842 C480.359,424.014 496.379,412.388 482.011,401.614 C472.464,395.406 455.831,389.259 439.434,386.001 C409.446,380.536 380.059,381.698 349.854,381.698 C323.307,381.698 298.844,391.434 273.673,398.4 C269.557,399.539 259.868,401.578 258.336,406.176 C257.241,409.458 268.043,414.434 270.688,416.487 C280.161,423.839 290.478,428.995 301.627,433.144 C327.135,442.64 354.762,442.441 381.637,442.441 z" fill-opacity="0" stroke="#000000" stroke-width="3" stroke-linecap="round" stroke-linejoin="round"/>
      </g>
      <g id="path3706">
        <path d="M260.376,297.151 C334.351,297.151 408.328,297.151 482.304,297.151 C485.764,297.151 489.225,297.151 492.684,297.151 C493.658,297.151 491.583,303.436 497.02,303.648 C518.204,304.471 560.572,304.492 560.572,304.492 C560.572,304.492 602.631,303.109 606.067,307.585 C609.502,312.062 607.998,337.239 607.771,345.936 C607.158,369.495 606.543,393.056 605.93,416.615 C605.749,423.54 605.569,430.464 605.389,437.389 C605.268,442.014 594.846,444.202 591.973,441.534 C590.057,439.755 590.269,429.885 590.036,427.74 C588.792,416.32 587.55,404.899 586.307,393.479 C584.565,377.475 584.407,360.355 580.208,344.761 C577.979,336.485 539.962,343.172 534.256,343.463 C529.307,343.716 487.994,342.503 486.549,346.612 C480.449,363.957 474.349,381.302 468.25,398.646 C465.174,407.391 436.189,412.231 428.252,413.468 C388.957,419.594 346.503,421.449 308.392,408.111 C297.417,404.27 289.505,400.962 281.867,391.975 C276.767,385.977 276.624,374.686 275.002,367.217 C271.749,352.237 268.496,337.257 265.243,322.277 C263.498,314.249 260.274,305.439 260.376,297.151 z" fill="#000000"/>
        <path d="M260.376,297.151 C334.351,297.151 408.328,297.151 482.304,297.151 C485.764,297.151 489.225,297.151 492.684,297.151 C493.658,297.151 491.583,303.436 497.02,303.648 C518.204,304.471 560.572,304.492 560.572,304.492 C560.572,304.492 602.631,303.109 606.067,307.585 C609.502,312.062 607.998,337.239 607.771,345.936 C607.158,369.495 606.543,393.056 605.93,416.615 C605.749,423.54 605.569,430.464 605.389,437.389 C605.268,442.014 594.846,444.202 591.973,441.534 C590.057,439.755 590.269,429.885 590.036,427.74 C588.792,416.32 587.55,404.899 586.307,393.479 C584.565,377.475 584.407,360.355 580.208,344.761 C577.979,336.485 539.962,343.172 534.256,343.463 C529.307,343.716 487.994,342.503 486.549,346.612 C480.449,363.957 474.349,381.302 468.25,398.646 C465.174,407.391 436.189,412.231 428.252,413.468 C388.957,419.594 346.503,421.449 308.392,408.111 C297.417,404.27 289.505,400.962 281.867,391.975 C276.767,385.977 276.624,374.686 275.002,367.217 C271.749,352.237 268.496,337.257 265.243,322.277 C263.498,314.249 260.274,305.439 260.376,297.151 z" fill-opacity="0" stroke="#FFFFFF" stroke-width="1.882" stroke-linejoin="round"/>
      </g>
      <path d="M284.807,302.998 L309.739,302.998 L324.698,404.993 L306.339,399.553 z" fill="#707070" id="polygon3708"/>
      <path d="M492.697,315.968 L487.032,344.073" fill-opacity="0" stroke="#FFFFFF" stroke-width="1.882" stroke-linejoin="round" id="line3710"/>
      <path d="M22.114,762.886 L526.876,762.886 L538.888,744.525 L9.647,744.525 z" fill="#000000" id="polygon3712"/>
      <path d="M39.112,295.069 L505.57,295.069 L528.463,259.71 L16.899,259.71 z" fill="#000000" id="polygon3714"/>
      <path d="M486.805,345.656 L493.604,311.434 L493.604,303.728" fill-opacity="0" stroke="#FFFFFF" stroke-width="1.882" stroke-linejoin="round" id="polyline3716"/>
      <g id="polygon3718">
        <path d="M240.657,109.257 L234.763,174.757 L500.631,174.757 L500.177,169.318 L500.177,162.749 L498.137,160.028 L461.192,102.911 L457.793,102.227 L455.527,109.257 L454.62,109.027 z" fill="#000000"/>
        <path d="M240.657,109.257 L234.763,174.757 L500.631,174.757 L500.177,169.318 L500.177,162.749 L498.137,160.028 L461.192,102.911 L457.793,102.227 L455.527,109.257 L454.62,109.027 z" fill-opacity="0" stroke="#000000" stroke-width="3" stroke-linecap="round" stroke-linejoin="round"/>
      </g>
      <path d="M457.566,104.494 L495.191,162.749" fill-opacity="0" stroke="#000000" stroke-width="2" stroke-linecap="round" stroke-linejoin="round" id="line3720"/>
      <path d="M455.3,109.481 L492.697,170.455 L495.191,162.749 L499.724,162.971" fill-opacity="0" stroke="#000000" stroke-width="2" stroke-linecap="round" stroke-linejoin="round" id="polyline3722"/>
      <path d="M237.257,170.224 L492.697,170.224" fill-opacity="0" stroke="#000000" stroke-width="2" stroke-linecap="round" stroke-linejoin="round" id="line3724"/>
      <path d="M527.829,191.53 L13.773,191.53" fill-opacity="0" stroke="#000000" stroke-width="3" stroke-linecap="round" stroke-linejoin="round" id="line3726"/>
      <path d="M239.523,621.27 L239.523,674.307 L38.025,674.307 L38.025,623.537" fill-opacity="0" stroke="#000000" stroke-width="3" stroke-linecap="round" stroke-linejoin="round" id="polyline3728"/>
      <path d="M6.974,705.363 L542.789,705.363" fill-opacity="0" stroke="#000000" stroke-width="3" stroke-linecap="round" stroke-linejoin="round" id="line3730"/>
      <path d="M481.859,436.014 L535.74,430.118 C535.74,430.118 562.881,426.795 563.051,433.518" fill-opacity="0" stroke="#FFFFFF" stroke-width="1" stroke-linecap="round" stroke-linejoin="round" id="path3732"/>
      <path d="M562.735,438.585 L571.573,576.169" fill-opacity="0" stroke="#FFFFFF" stroke-width="1" stroke-linecap="round" stroke-linejoin="round" id="line3734"/>
      <path d="M493.604,311.658 C493.604,311.658 596.353,309.263 600.125,311.658 C603.896,314.052 602.942,317.506 602.942,317.506" fill-opacity="0" stroke="#FFFFFF" stroke-width="1" stroke-linecap="round" stroke-linejoin="round" id="path3736"/>
      <path d="M602.853,321.622 L602.99,439.18" fill-opacity="0" stroke="#FFFFFF" stroke-width="1" stroke-linecap="round" stroke-linejoin="round" id="line3738"/>
      <path d="M378.643,518.32 C408.432,520.235 439.038,520.382 466.594,533.542 C472.017,536.233 477.478,540.06 479.064,546.204 L480.185,546.204 L489.961,636.747 C490.507,638.04 490.615,639.438 490.4,640.816 L490.61,642.759 L490.01,642.759 C489.146,645.009 489.625,644.03 488.664,645.735 C481.526,657.158 467.168,665.378 454.678,669.787 C425.466,680.1 395.478,685.044 364.432,683.151 C336.839,681.47 299.409,677.393 278.462,657.035 C274.577,653.18 271.081,648.43 270.914,642.759 L270.755,642.759 L270.862,640.99 C270.851,640.614 270.834,640.784 270.894,640.48 L276.648,546.204 L276.83,546.204 C277.911,542.399 280.862,539.753 283.868,537.388 C308.541,518.881 349.354,518.955 378.643,518.321 z" fill="#2D0F05" id="CoffeeBrew" opacity="0.33"/>
      <path d="M284.807,663.835 C284.807,663.835 294.403,458.888 293.874,452.388 C293.344,445.889 283.674,426.752 283.674,426.752 L302.26,436.048 C302.26,436.048 309.135,448.749 308.833,456.901 C308.532,465.053 302.26,672.678 302.26,672.678 L284.807,663.835 z" fill="#898989" id="path3746" opacity="0.62"/>
      <path d="M332.405,681.744 L337.391,469.817 L336.032,442.618 L353.711,443.524 L354.844,465.967 L356.204,686.731 L339.885,685.593 z" fill="#FFFFFF" id="polygon3748" opacity="0.62"/>
      <g id="path3750">
        <path d="M329.733,496.84 C359.878,501.254 390.175,503.429 420.394,497.969 C434.838,495.359 449.724,491.896 463.006,485.507 C466.899,483.634 475.729,475.474 479.494,475.034 C488.428,473.993 497.363,472.951 506.296,471.908 C505.392,479.68 506.888,504.517 498.636,505.414 C492.14,506.12 484.212,505.394 478.798,509.26 C473.616,512.96 468.245,515.934 462.551,518.822 C439.297,530.618 413.602,533.128 387.841,534.022 C361.72,534.927 334.483,532.598 309.448,524.864 C297.675,521.225 286.52,514.355 276.946,506.695 C268.303,499.781 274.089,480.044 274.653,470.318 C289.467,486.365 308.802,492.948 329.733,496.84 z" fill="#919191"/>
        <path d="M329.733,496.84 C359.878,501.254 390.175,503.429 420.394,497.969 C434.838,495.359 449.724,491.896 463.006,485.507 C466.899,483.634 475.729,475.474 479.494,475.034 C488.428,473.993 497.363,472.951 506.296,471.908 C505.392,479.68 506.888,504.517 498.636,505.414 C492.14,506.12 484.212,505.394 478.798,509.26 C473.616,512.96 468.245,515.934 462.551,518.822 C439.297,530.618 413.602,533.128 387.841,534.022 C361.72,534.927 334.483,532.598 309.448,524.864 C297.675,521.225 286.52,514.355 276.946,506.695 C268.303,499.781 274.089,480.044 274.653,470.318 C289.467,486.365 308.802,492.948 329.733,496.84 z" fill-opacity="0" stroke="#000000" stroke-width="1.882" stroke-linejoin="round"/>
      </g>
      <g id="path3752">
        <path d="M498.364,490.946 C498.477,482.177 486.26,482.367 486.351,490.946 C486.443,499.569 498.178,499.483 498.364,490.946 z" fill="#FFFFFF"/>
        <path d="M498.364,490.946 C498.477,482.177 486.26,482.367 486.351,490.946 C486.443,499.569 498.178,499.483 498.364,490.946 z" fill-opacity="0" stroke="#000000" stroke-width="1" stroke-linecap="round" stroke-linejoin="round"/>
      </g>
      <g id="polygon3754" opacity="0.62">
        <path d="M293.823,513.604 L294.956,489.124 L306.516,494.565 L306.516,521.079 L292.463,513.604 z" fill="#FFFFFF"/>
        <path d="M293.823,513.604 L294.956,489.124 L306.516,494.565 L306.516,521.079 L292.463,513.604 z" fill-opacity="0" stroke="#FFFFFF" stroke-width="1.882" stroke-linejoin="round"/>
      </g>
      <g id="polygon3756" opacity="0.62">
        <path d="M356.024,502.732 L355.344,531.061 L337.437,528.571 L337.437,500.012 z" fill="#FFFFFF"/>
        <path d="M356.024,502.732 L355.344,531.061 L337.437,528.571 L337.437,500.012 z" fill-opacity="0" stroke="#FFFFFF" stroke-width="1.882" stroke-linejoin="round"/>
      </g>
      <path d="M123.18,596.444 L123.18,623.201" fill-opacity="0" stroke="#FFFFFF" stroke-width="3" stroke-linecap="round" stroke-linejoin="round" id="line3758"/>
      <path d="M166.931,596.444 L166.931,623.924" fill-opacity="0" stroke="#FFFFFF" stroke-width="3" stroke-linecap="round" stroke-linejoin="round" id="line3760"/>
      <g id="demotext">
        <path d="M34.019,233.423 L36.055,231.27 Q36.802,231.548 38.135,231.768 Q39.219,231.109 39.614,230.091 Q40.01,229.072 40.347,226.084 L41.562,215.171 Q34.927,215.947 34.927,219.961 Q34.927,221.162 35.571,222.466 L33.198,224.693 Q32.876,223.975 32.876,222.569 Q32.876,218.174 36.296,215.852 Q39.717,213.53 46.162,213.53 Q56.797,213.53 56.797,220.928 Q56.797,225.352 53.809,229.087 Q49.839,234.024 41.709,234.024 Q38.296,234.024 34.019,233.423 z M43.965,214.834 L42.734,225.835 L42.588,227.212 Q42.368,229.131 41.768,230.01 Q41.167,230.889 39.409,231.914 Q42.617,232.354 45.4,232.354 Q47.993,232.354 49.407,231.629 Q50.82,230.904 52.168,228.882 Q54.058,226.07 54.058,222.569 Q54.058,214.834 44.448,214.834 z" fill="url(#Gradient_1)"/>
        <path d="M66.86,229.16 Q67.227,229.409 67.227,229.746 Q67.227,230.2 66.289,231.299 Q63.784,234.199 61.338,234.199 Q59.844,234.199 58.877,233.013 Q57.91,231.826 57.91,229.981 Q57.91,226.641 60.437,223.22 Q62.964,219.8 65.439,219.8 Q67.227,219.8 67.227,221.719 Q67.227,223.872 65.139,225.923 Q63.052,227.974 60.049,228.78 Q60.342,232.31 62.832,232.31 Q65.293,232.31 66.86,229.16 z M60.107,226.992 Q60.532,227.139 60.884,227.139 Q62.7,227.139 64.062,226.026 Q65.425,224.912 65.425,223.418 Q65.425,221.704 63.682,221.704 Q62.422,221.704 61.404,223.206 Q60.386,224.707 60.107,226.992 z" fill="url(#Gradient_2)"/>
        <path d="M80.542,233.306 L78.374,234.199 L78.418,233.789 L78.535,232.705 L78.638,231.68 L79.37,225.103 L79.473,224.356 Q79.531,223.77 79.531,223.213 Q79.531,221.792 78.667,221.792 Q77.319,221.792 75.525,224.546 Q73.73,227.3 73.452,229.79 L73.071,233.306 L70.889,234.199 L70.933,233.789 L71.05,232.705 L71.167,231.68 L71.914,224.883 L72.002,224.107 Q72.104,223.198 72.104,222.642 Q72.104,221.704 71.636,221.704 Q70.537,221.704 69.263,224.195 Q68.926,223.916 68.926,223.711 Q68.926,222.832 70.53,221.316 Q72.134,219.8 73.071,219.8 Q74.331,219.8 74.331,221.411 Q74.331,221.822 74.258,222.51 L74.141,223.697 L74.023,224.693 L73.906,225.733 L74.316,225.088 Q77.598,219.8 80.425,219.8 Q81.787,219.8 81.787,221.763 Q81.787,222.1 81.67,223.184 L81.523,224.531 L81.318,226.363 Q82.681,223.535 84.548,221.668 Q86.416,219.8 87.881,219.8 Q89.331,219.8 89.331,221.675 Q89.331,222.481 89.17,223.594 L88.394,229.029 Q88.145,230.713 88.145,231.636 Q88.145,232.412 88.569,232.412 Q89.067,232.412 89.822,231.577 Q90.576,230.742 91.03,229.688 Q91.426,229.951 91.426,230.171 Q91.426,231.094 89.792,232.647 Q88.159,234.199 87.192,234.199 Q85.947,234.199 85.947,232.53 Q85.947,231.475 86.27,229.263 L86.782,225.733 Q86.812,225.542 86.885,224.898 Q86.914,224.634 86.987,224.004 Q87.061,223.374 87.061,223.037 Q87.061,221.792 86.24,221.792 Q84.863,221.792 83.04,224.546 Q81.216,227.3 80.937,229.79 z" fill="url(#Gradient_3)"/>
        <path d="M96.025,234.199 Q92.729,234.199 92.729,229.834 Q92.729,226.319 95.308,223.059 Q97.886,219.8 100.654,219.8 Q103.994,219.8 103.994,224.165 Q103.994,227.696 101.416,230.947 Q98.838,234.199 96.025,234.199 z M97.798,232.559 Q99.482,232.559 100.618,230.684 Q101.753,228.809 101.753,226.011 Q101.753,221.441 98.911,221.441 Q97.241,221.441 96.106,223.323 Q94.971,225.205 94.971,227.988 Q94.971,232.559 97.798,232.559 z" fill="url(#Gradient_4)"/>
        <path d="M107.129,234.434 Q106.484,233.042 105.415,232.354 L107.583,230.288 Q108.535,231.006 109.282,232.354 z" fill="url(#Gradient_5)"/>
        <path d="M127.432,228.706 Q127.769,228.867 127.769,229.175 Q127.769,230.142 125.996,231.724 Q122.993,234.405 119.17,234.405 Q116.079,234.405 114.241,232.171 Q112.402,229.937 112.402,226.172 Q112.402,220.796 115.845,217.163 Q119.287,213.53 124.385,213.53 Q126.978,213.53 129.761,214.512 L128.779,216.665 L128.501,217.295 Q128.149,218.042 127.637,218.042 Q127.534,218.042 127.329,217.998 Q127.534,217.544 127.534,217.251 Q127.534,216.27 126.223,215.537 Q124.912,214.805 123.169,214.805 Q119.595,214.805 117.361,217.632 Q115.127,220.459 115.127,224.986 Q115.127,228.487 116.694,230.567 Q118.262,232.647 120.884,232.647 Q122.773,232.647 124.656,231.511 Q126.538,230.376 127.432,228.706 z" fill="url(#Gradient_6)"/>
        <path d="M133.76,234.199 Q130.464,234.199 130.464,229.834 Q130.464,226.319 133.042,223.059 Q135.62,219.8 138.389,219.8 Q141.729,219.8 141.729,224.165 Q141.729,227.696 139.15,230.947 Q136.572,234.199 133.76,234.199 z M135.532,232.559 Q137.217,232.559 138.352,230.684 Q139.487,228.809 139.487,226.011 Q139.487,221.441 136.645,221.441 Q134.976,221.441 133.84,223.323 Q132.705,225.205 132.705,227.988 Q132.705,232.559 135.532,232.559 z" fill="url(#Gradient_7)"/>
        <path d="M142.256,244.248 Q139.736,246.138 136.821,246.138 Q136.191,246.138 135.122,245.772 L137.085,243.985 Q138.33,244.395 139.326,244.395 Q143.691,244.395 144.336,237.847 L144.687,234.214 L145.933,221.88 L143.281,221.88 L144.951,220.181 L146.094,220.181 Q146.562,214.863 149.163,211.978 Q151.763,209.092 156.099,209.092 Q158.047,209.092 159.497,209.693 Q162.148,207.862 164.829,207.862 Q165.605,207.862 166.572,208.008 L164.521,210.03 Q163.423,209.605 162.368,209.605 Q159.878,209.605 158.779,211.399 Q157.681,213.194 157.197,218.028 L156.978,220.181 L162.939,220.181 L161.196,221.88 L156.802,221.88 L155.615,233.819 Q155.103,238.828 152.429,241.868 Q149.756,244.907 145.845,244.907 Q144.043,244.907 142.256,244.248 z M148.174,220.181 L154.897,220.181 L154.985,219.273 Q155.527,213.794 157.856,211.363 Q156.45,210.718 154.385,210.718 Q151.44,210.718 150.122,212.293 Q148.804,213.867 148.408,217.881 z M154.722,221.88 L148.013,221.88 L146.812,233.819 Q146.445,237.481 145.859,239.231 Q145.273,240.982 143.853,242.652 Q145.332,243.296 147.031,243.296 Q150.532,243.296 151.719,241.634 Q152.905,239.971 153.477,234.302 z" fill="url(#Gradient_8)"/>
        <path d="M170.454,229.16 Q170.82,229.409 170.82,229.746 Q170.82,230.2 169.883,231.299 Q167.378,234.199 164.932,234.199 Q163.437,234.199 162.471,233.013 Q161.504,231.826 161.504,229.981 Q161.504,226.641 164.031,223.22 Q166.558,219.8 169.033,219.8 Q170.82,219.8 170.82,221.719 Q170.82,223.872 168.733,225.923 Q166.645,227.974 163.643,228.78 Q163.936,232.31 166.426,232.31 Q168.887,232.31 170.454,229.16 z M163.701,226.992 Q164.126,227.139 164.478,227.139 Q166.294,227.139 167.656,226.026 Q169.019,224.912 169.019,223.418 Q169.019,221.704 167.275,221.704 Q166.016,221.704 164.998,223.206 Q163.979,224.707 163.701,226.992 z" fill="url(#Gradient_9)"/>
        <path d="M181.602,229.16 Q181.968,229.409 181.968,229.746 Q181.968,230.2 181.03,231.299 Q178.525,234.199 176.079,234.199 Q174.585,234.199 173.618,233.013 Q172.651,231.826 172.651,229.981 Q172.651,226.641 175.178,223.22 Q177.705,219.8 180.181,219.8 Q181.968,219.8 181.968,221.719 Q181.968,223.872 179.88,225.923 Q177.793,227.974 174.79,228.78 Q175.083,232.31 177.573,232.31 Q180.034,232.31 181.602,229.16 z M174.849,226.992 Q175.273,227.139 175.625,227.139 Q177.441,227.139 178.804,226.026 Q180.166,224.912 180.166,223.418 Q180.166,221.704 178.423,221.704 Q177.163,221.704 176.145,223.206 Q175.127,224.707 174.849,226.992 z" fill="url(#Gradient_10)"/>
        <path d="M185.205,233.423 L187.241,231.27 Q187.988,231.548 189.321,231.768 Q190.405,231.109 190.801,230.091 Q191.196,229.072 191.533,226.084 L192.749,215.171 Q186.113,215.947 186.113,219.961 Q186.113,221.162 186.758,222.466 L184.385,224.693 Q184.062,223.975 184.062,222.569 Q184.062,218.174 187.483,215.852 Q190.903,213.53 197.349,213.53 Q207.983,213.53 207.983,220.928 Q207.983,225.352 204.995,229.087 Q201.025,234.024 192.895,234.024 Q189.482,234.024 185.205,233.423 z M195.151,214.834 L193.921,225.835 L193.774,227.212 Q193.555,229.131 192.954,230.01 Q192.354,230.889 190.596,231.914 Q193.804,232.354 196.587,232.354 Q199.18,232.354 200.593,231.629 Q202.007,230.904 203.354,228.882 Q205.244,226.07 205.244,222.569 Q205.244,214.834 195.635,214.834 z" fill="url(#Gradient_11)"/>
        <path d="M219.746,228.062 Q218.076,230.625 215.981,232.412 Q213.887,234.199 212.568,234.199 Q211.118,234.199 211.118,232.266 Q211.118,231.548 211.309,229.907 L211.836,225.103 Q211.851,225 211.909,224.253 L211.997,223.301 Q212.041,222.876 212.041,222.539 Q212.041,221.69 211.558,221.69 Q210.444,221.69 209.155,224.195 Q208.877,223.975 208.877,223.726 Q208.877,222.818 210.496,221.309 Q212.114,219.8 213.066,219.8 Q214.282,219.8 214.282,221.47 Q214.282,221.865 214.224,222.393 L214.092,223.521 L213.96,224.751 L213.491,228.941 Q213.374,230.01 213.374,231.109 Q213.374,232.119 214.121,232.119 Q215.776,232.119 217.864,229.395 Q219.951,226.67 220.332,224.004 L220.83,220.532 L223.203,219.727 Q222.793,221.426 222.588,222.759 L221.709,228.882 Q221.636,229.439 221.592,229.82 L221.489,230.625 Q221.401,231.372 221.401,231.68 Q221.401,232.31 221.753,232.31 Q222.998,232.31 224.287,229.556 Q224.683,229.79 224.683,230.025 Q224.683,230.537 223.408,232.09 Q221.694,234.199 220.229,234.199 Q219.16,234.199 219.16,232.764 Q219.16,232.31 219.263,231.548 L219.424,230.376 Q219.556,229.424 219.6,229.087 z" fill="url(#Gradient_12)"/>
        <path d="M225.034,233.408 L227.056,231.753 Q228.198,232.969 229.927,232.969 Q232.036,232.969 232.036,230.933 Q232.036,229.805 230.103,227.783 L229.268,226.919 Q227.437,225 227.437,223.814 Q227.437,222.114 228.909,220.957 Q230.381,219.8 232.534,219.8 Q233.706,219.8 235.098,220.239 L233.34,221.865 Q232.227,221.03 230.864,221.03 Q229.268,221.03 229.268,222.363 Q229.268,223.316 231.04,225.161 L231.948,226.128 Q233.97,228.238 233.97,229.527 Q233.97,231.372 232.197,232.786 Q230.425,234.199 228.11,234.199 Q226.47,234.199 225.034,233.408 z" fill="url(#Gradient_13)"/>
        <path d="M241.221,221.88 L240.488,228.355 Q240.298,230.098 240.298,230.933 Q240.298,232.588 241.426,232.588 Q242.642,232.588 243.945,230.596 Q244.165,230.874 244.165,231.094 Q244.165,231.914 242.722,233.057 Q241.279,234.199 240.239,234.199 Q238.159,234.199 238.159,231.533 Q238.159,230.552 238.408,228.355 L239.126,221.88 L236.035,221.88 L237.749,220.181 L239.316,220.181 L239.624,217.515 L241.777,216.797 L241.411,220.181 L247.622,220.181 L245.908,221.88 z" fill="url(#Gradient_14)"/>
        <path d="M248.735,234.434 Q248.091,233.042 247.021,232.354 L249.189,230.288 Q250.142,231.006 250.889,232.354 z" fill="url(#Gradient_15)"/>
        <path d="M260.542,229.556 Q260.937,229.79 260.937,230.01 Q260.937,230.537 259.663,232.09 Q257.949,234.199 256.484,234.199 Q255.415,234.199 255.415,232.779 Q255.415,232.178 255.854,229.087 L256.426,225.103 L256.572,224.092 L256.689,223.286 Q256.763,222.774 256.763,222.422 Q256.763,221.69 256.353,221.69 Q255.21,221.69 253.892,224.209 Q253.613,223.96 253.613,223.711 Q253.613,222.818 255.261,221.309 Q256.909,219.8 257.891,219.8 Q258.989,219.8 258.989,221.323 Q258.989,221.616 258.872,222.525 L258.74,223.506 Q258.726,223.623 258.579,224.693 L257.978,228.882 L257.832,229.82 Q257.642,231.211 257.642,231.68 Q257.642,232.31 258.008,232.31 Q259.238,232.31 260.542,229.556 z M257.598,217.91 L258.828,214.878 Q260.469,214.204 261.523,213.018 Q261.67,213.223 261.67,213.443 Q261.67,215.405 257.598,217.91 z" fill="url(#Gradient_16)"/>
        <path d="M265.566,234.199 Q262.27,234.199 262.27,229.834 Q262.27,226.319 264.849,223.059 Q267.427,219.8 270.195,219.8 Q273.535,219.8 273.535,224.165 Q273.535,227.696 270.957,230.947 Q268.379,234.199 265.566,234.199 z M267.339,232.559 Q269.023,232.559 270.159,230.684 Q271.294,228.809 271.294,226.011 Q271.294,221.441 268.452,221.441 Q266.782,221.441 265.647,223.323 Q264.512,225.205 264.512,227.988 Q264.512,232.559 267.339,232.559 z" fill="url(#Gradient_17)"/>
      </g>
    </g>
  </g>
</svg>
