<?xml version="1.0" encoding="UTF-8"?>
<!DOCTYPE svg PUBLIC "-//W3C//DTD SVG 1.1//EN" "http://www.w3.org/Graphics/SVG/1.1/DTD/svg11.dtd">
<svg version="1.1" xmlns="http://www.w3.org/2000/svg" xmlns:xlink="http://www.w3.org/1999/xlink" x="0" y="0" width="500" height="500" viewBox="0, 0, 500, 500">
  <defs>
    <clipPath id="Clip_1">
      <path d="M277.228,259.415 L314.612,259.415 L314.612,311.684 L277.228,311.684 z M302.328,267.415 L301.797,267.632 L301.797,267.632 C295.365,272.934 290.789,279.045 292.074,287.802 C292.73,292.275 291.046,296.174 287.58,299.334 C286.261,300.535 284.899,301.689 283.228,303.152 C286.966,304.289 290.153,303.463 293.235,302.012 C302.474,297.664 309.306,286.24 308.556,276.399 C308.295,272.982 307.182,269.884 304.357,267.743 C303.344,267.286 303.996,267.497 302.328,267.415 z"/>
    </clipPath>
    <filter id="Shadow_2">
      <feGaussianBlur in="SourceAlpha" stdDeviation="2.5"/>
      <feOffset dx="0" dy="2" result="offsetblur"/>
      <feFlood flood-color="#000000"/>
      <feComposite in2="offsetblur" operator="in"/>
    </filter>
    <clipPath id="Clip_3">
      <path d="M302.328,267.415 C303.996,267.497 303.344,267.286 304.357,267.743 C307.182,269.884 308.295,272.982 308.556,276.399 C309.306,286.24 302.474,297.664 293.235,302.012 C290.153,303.463 286.966,304.289 283.228,303.152 C284.899,301.689 286.261,300.535 287.58,299.334 C291.046,296.174 292.73,292.275 292.074,287.802 C290.789,279.045 295.365,272.934 301.797,267.632 L301.797,267.632 L302.328,267.415 z"/>
    </clipPath>
    <filter id="InnerShadow_4">
      <feGaussianBlur in="SourceAlpha" stdDeviation="2.5"/>
      <feOffset dx="0" dy="2" result="offsetblur"/>
      <feFlood flood-color="#000000"/>
      <feComposite in2="offsetblur" operator="in"/>
    </filter>
    <clipPath id="Clip_5">
      <path d="M266.242,255.722 L305.426,255.722 L305.426,309.055 L266.242,309.055 z M294.923,263.722 C291.964,263.833 290.682,263.822 287.945,265.232 L287.946,265.232 C278.984,269.677 271.569,282.362 272.291,291.985 C272.583,295.875 274.251,298.981 277.872,300.765 C278.562,301.104 279.789,301.182 280.409,300.804 C284.808,298.119 287.739,294.391 288.307,289.269 C288.537,287.2 288.534,285.112 288.584,283.033 C288.712,277.669 290.728,273.125 294.926,269.461 C296.39,268.182 297.728,266.766 299.426,265.121 C296.961,264.009 298.434,264.556 294.923,263.722 z"/>
    </clipPath>
    <filter id="Shadow_6">
      <feGaussianBlur in="SourceAlpha" stdDeviation="2.5"/>
      <feOffset dx="0" dy="2" result="offsetblur"/>
      <feFlood flood-color="#000000"/>
      <feComposite in2="offsetblur" operator="in"/>
    </filter>
    <clipPath id="Clip_7">
      <path d="M294.923,263.722 C298.434,264.556 296.961,264.009 299.426,265.121 C297.728,266.766 296.39,268.182 294.926,269.461 C290.728,273.125 288.712,277.669 288.584,283.033 C288.534,285.112 288.537,287.2 288.307,289.269 C287.739,294.391 284.808,298.119 280.409,300.804 C279.789,301.182 278.562,301.104 277.872,300.765 C274.251,298.981 272.583,295.875 272.291,291.985 C271.569,282.362 278.984,269.677 287.946,265.232 L287.945,265.232 C290.682,263.822 291.964,263.833 294.923,263.722 z"/>
    </clipPath>
    <filter id="InnerShadow_8">
      <feGaussianBlur in="SourceAlpha" stdDeviation="2.5"/>
      <feOffset dx="0" dy="2" result="offsetblur"/>
      <feFlood flood-color="#000000"/>
      <feComposite in2="offsetblur" operator="in"/>
    </filter>
    <clipPath id="Clip_9">
      <path d="M278.237,292.26 L325.873,292.26 L325.873,335.361 L278.237,335.361 z M316.569,300.28 L316.569,300.28 C308.458,302.2 301.656,305.667 298.946,314.092 C297.562,318.396 294.331,321.152 289.827,322.459 C288.113,322.956 286.381,323.391 284.237,323.967 C287.09,326.636 290.314,327.3 293.72,327.358 C303.93,327.531 315.101,320.291 318.768,311.128 C320.041,307.947 320.409,304.676 318.818,301.509 C318.498,300.872 317.2,300.13 316.569,300.28 z"/>
    </clipPath>
    <filter id="Shadow_10">
      <feGaussianBlur in="SourceAlpha" stdDeviation="2.5"/>
      <feOffset dx="0" dy="2" result="offsetblur"/>
      <feFlood flood-color="#000000"/>
      <feComposite in2="offsetblur" operator="in"/>
    </filter>
    <clipPath id="Clip_11">
      <path d="M316.569,300.28 C317.2,300.13 318.498,300.872 318.818,301.509 C320.409,304.676 320.041,307.947 318.768,311.128 C315.101,320.291 303.93,327.531 293.72,327.358 C290.314,327.3 287.09,326.636 284.237,323.967 C286.381,323.391 288.113,322.956 289.827,322.459 C294.331,321.152 297.562,318.396 298.946,314.092 C301.656,305.667 308.458,302.2 316.569,300.28 L316.569,300.28 z"/>
    </clipPath>
    <filter id="InnerShadow_12">
      <feGaussianBlur in="SourceAlpha" stdDeviation="2.5"/>
      <feOffset dx="0" dy="2" result="offsetblur"/>
      <feFlood flood-color="#000000"/>
      <feComposite in2="offsetblur" operator="in"/>
    </filter>
    <clipPath id="Clip_13">
      <path d="M272.518,285.595 L321.659,285.595 L321.659,330.2 L272.518,330.2 z M306.805,293.648 L305.307,293.595 C295.304,293.632 283.054,301.746 279.457,310.7 C278.003,314.32 278.13,317.843 280.593,321.041 C281.063,321.65 282.129,322.261 282.853,322.195 C287.985,321.726 292.26,319.673 295.03,315.327 C296.148,313.572 297.066,311.697 298.028,309.853 C300.509,305.095 304.323,301.906 309.707,300.469 C311.584,299.968 313.41,299.287 315.659,298.56 C313.317,295.723 310.567,293.918 306.805,293.648 z"/>
    </clipPath>
    <filter id="Shadow_14">
      <feGaussianBlur in="SourceAlpha" stdDeviation="2.5"/>
      <feOffset dx="0" dy="2" result="offsetblur"/>
      <feFlood flood-color="#000000"/>
      <feComposite in2="offsetblur" operator="in"/>
    </filter>
    <clipPath id="Clip_15">
      <path d="M306.805,293.648 C310.567,293.918 313.317,295.723 315.659,298.56 C313.41,299.287 311.584,299.968 309.707,300.469 C304.323,301.906 300.509,305.095 298.028,309.853 C297.066,311.697 296.148,313.572 295.03,315.327 C292.26,319.673 287.985,321.726 282.853,322.195 C282.129,322.261 281.063,321.65 280.593,321.041 C278.13,317.843 278.003,314.32 279.457,310.7 C283.054,301.746 295.304,293.632 305.307,293.595 L306.805,293.648 z"/>
    </clipPath>
    <filter id="InnerShadow_16">
      <feGaussianBlur in="SourceAlpha" stdDeviation="2.5"/>
      <feOffset dx="0" dy="2" result="offsetblur"/>
      <feFlood flood-color="#000000"/>
      <feComposite in2="offsetblur" operator="in"/>
    </filter>
    <clipPath id="Clip_17">
      <path d="M228.878,283.152 L287.365,283.152 L287.365,331.54 L228.878,331.54 z M236.136,291.152 C234.115,295.764 234.793,299.754 236.319,303.634 C240.894,315.264 255.252,324.128 268.508,323.51 C273.111,323.296 277.401,322.011 280.641,318.566 C281.293,317.874 281.617,316.021 281.133,315.385 L281.133,315.386 C274.907,307.215 267.351,301.329 255.472,302.645 C249.404,303.318 244.417,301.099 240.658,296.687 C239.228,295.008 237.867,293.276 236.136,291.152 z"/>
    </clipPath>
    <filter id="Shadow_18">
      <feGaussianBlur in="SourceAlpha" stdDeviation="2.5"/>
      <feOffset dx="0" dy="2" result="offsetblur"/>
      <feFlood flood-color="#000000"/>
      <feComposite in2="offsetblur" operator="in"/>
    </filter>
    <clipPath id="Clip_19">
      <path d="M236.136,291.152 C237.867,293.276 239.228,295.008 240.658,296.687 C244.417,301.099 249.404,303.318 255.472,302.645 C267.351,301.329 274.907,307.215 281.133,315.386 L281.133,315.385 C281.617,316.021 281.293,317.874 280.641,318.566 C277.401,322.011 273.111,323.296 268.508,323.51 C255.252,324.128 240.894,315.264 236.319,303.634 C234.793,299.754 234.115,295.764 236.136,291.152 z"/>
    </clipPath>
    <filter id="InnerShadow_20">
      <feGaussianBlur in="SourceAlpha" stdDeviation="2.5"/>
      <feOffset dx="0" dy="2" result="offsetblur"/>
      <feFlood flood-color="#000000"/>
      <feComposite in2="offsetblur" operator="in"/>
    </filter>
    <clipPath id="Clip_21">
      <path d="M231.71,270.317 L291.819,270.317 L291.819,320.953 L231.71,320.953 z M250.795,278.343 C245.556,278.581 241.18,280.556 238.311,285.002 C237.764,285.849 237.495,287.373 237.918,288.156 C240.918,293.714 245.51,297.479 252.281,298.35 C255.015,298.701 257.807,298.765 260.579,298.894 C267.734,299.225 273.538,301.879 277.875,307.217 C279.387,309.079 281.101,310.789 283.073,312.953 C286.544,307.842 286.39,303.258 284.463,298.671 L284.463,298.671 C279.72,287.384 263.756,277.754 250.795,278.343 z"/>
    </clipPath>
    <filter id="Shadow_22">
      <feGaussianBlur in="SourceAlpha" stdDeviation="2.5"/>
      <feOffset dx="0" dy="2" result="offsetblur"/>
      <feFlood flood-color="#000000"/>
      <feComposite in2="offsetblur" operator="in"/>
    </filter>
    <clipPath id="Clip_23">
      <path d="M250.795,278.343 C263.756,277.754 279.72,287.384 284.463,298.671 L284.463,298.671 C286.39,303.258 286.544,307.842 283.073,312.953 C281.101,310.789 279.387,309.079 277.875,307.217 C273.538,301.879 267.734,299.225 260.579,298.894 C257.807,298.765 255.015,298.701 252.281,298.35 C245.51,297.479 240.918,293.714 237.918,288.156 C237.495,287.373 237.764,285.849 238.311,285.002 C241.18,280.556 245.556,278.581 250.795,278.343 z"/>
    </clipPath>
    <filter id="InnerShadow_24">
      <feGaussianBlur in="SourceAlpha" stdDeviation="2.5"/>
      <feOffset dx="0" dy="2" result="offsetblur"/>
      <feFlood flood-color="#000000"/>
      <feComposite in2="offsetblur" operator="in"/>
    </filter>
  </defs>
  <g id="Layer_1">
    <g id="WindowLogo">
      <g>
        <path d="M18.975,95.395 L449.023,54.923 C454.907,54.369 460.126,58.691 460.68,64.575 L491.677,393.948 C492.23,399.833 487.909,405.052 482.025,405.605 L51.977,446.077 C46.093,446.631 40.874,442.309 40.32,436.425 L9.323,107.052 C8.77,101.167 13.091,95.948 18.975,95.395 z" fill="#383838"/>
        <path d="M18.975,95.395 L449.023,54.923 C454.907,54.369 460.126,58.691 460.68,64.575 L491.677,393.948 C492.23,399.833 487.909,405.052 482.025,405.605 L51.977,446.077 C46.093,446.631 40.874,442.309 40.32,436.425 L9.323,107.052 C8.77,101.167 13.091,95.948 18.975,95.395 z" fill-opacity="0" stroke="#000000" stroke-width="1"/>
      </g>
      <path d="M447.65,122.175 L448.231,123.262 C449.15,124.979 473.882,388.951 473.195,389.701 C472.416,390.553 57.712,429.581 56.787,428.889 C55.973,428.28 31.022,164.329 31.604,162.47 L31.972,161.294 L447.65,122.175 z" fill="#737373"/>
      <path d="M107.328,96.639 C109.367,96.397 111.401,96.428 113.391,96.927 C116.739,98.114 120.458,100.847 120.587,102.218 C120.601,102.371 121.015,103.098 121.507,103.833 C124.639,108.517 122.279,116.482 116.631,120.3 C114.226,121.925 107.351,122.697 105.378,121.563 C104.709,121.178 104.018,120.876 103.841,120.893 C103.41,120.934 99.851,117.944 99.138,116.943 C97.706,114.929 97.502,114.273 97.132,110.485 C96.606,105.076 98.928,100.199 102.863,98.449 C103.458,98.184 104.245,97.721 104.612,97.419 C105.866,96.759 105.006,97.141 107.328,96.639 z" fill="#7F5A3E"/>
      <path d="M72.48,99.848 C76.378,100.177 74.738,99.805 77.465,100.635 C87.808,104.601 89.327,117.228 80.243,123.715 C75.157,127.347 64.037,124.913 62.292,119.786 C62.126,119.295 61.708,118.627 61.365,118.303 C60.934,117.896 60.604,116.746 60.305,114.603 C59.674,106.101 64.447,101.374 72.48,99.848 z" fill="#673F21"/>
      <path d="M34.021,103.543 C38.682,103.629 36.712,103.253 40.006,104.199 C53.228,109.269 50.991,127.594 36.989,128.908 C31.147,129.456 27.604,127.74 24.497,122.858 C20.71,116.351 23.614,108.06 30.36,104.724 C31.508,104.156 32.8,103.937 34.021,103.543 z" fill="#4E280B"/>
      <path d="M377.51,328.77 L377.826,329.594 C378.365,330.996 379.306,341.154 378.973,341.971 C378.599,342.889 194.428,362.561 191.859,361.957 L190.629,361.668 L189.981,355.508 C189.407,350.038 189.403,349.297 189.953,348.895 C190.368,348.59 221.252,345.213 284.04,338.606 L377.51,328.77 z" fill="#2C1104"/>
      <path d="M441.977,81.524 C441.991,81.743 445.884,116.574 445.38,116.388 L141.624,144.713 C141.804,144.927 138.671,112.06 139.531,111.071 L441.977,81.524 z" fill="#737373"/>
      <g id="cd.io">
        <path d="M166.251,138.424 Q164.959,139.347 163.546,139.881 Q162.133,140.414 160.619,140.557 Q155.816,141.009 152.838,138.382 Q149.861,135.755 149.381,130.656 Q148.901,125.558 151.336,122.421 Q153.771,119.285 158.574,118.833 Q160.071,118.692 161.529,118.946 Q162.988,119.2 164.506,119.877 L164.841,123.443 Q163.38,122.369 161.972,121.961 Q160.563,121.553 158.845,121.714 Q155.65,122.015 154.126,124.246 Q152.603,126.477 152.965,130.319 Q153.325,134.143 155.247,136.059 Q157.17,137.974 160.348,137.675 Q162.121,137.508 163.474,136.831 Q164.826,136.154 165.919,134.896 z" fill="#2D1104"/>
        <path d="M179.184,119.8 Q176.598,120.044 175.458,122.183 Q174.317,124.321 174.689,128.275 Q175.059,132.209 176.58,134.107 Q178.1,136.005 180.686,135.761 Q183.291,135.516 184.431,133.368 Q185.57,131.22 185.2,127.285 Q184.828,123.332 183.309,121.444 Q181.789,119.555 179.184,119.8 z M178.913,116.919 Q183.217,116.514 185.761,119.088 Q188.305,121.663 188.802,126.946 Q189.301,132.248 187.291,135.242 Q185.28,138.236 180.958,138.643 Q176.653,139.048 174.12,136.482 Q171.586,133.915 171.087,128.614 Q170.59,123.33 172.599,120.327 Q174.609,117.324 178.913,116.919 z" fill="#2D1104"/>
        <path d="M209.237,106.442 L209.503,109.269 L205.642,109.632 Q203.813,109.804 203.172,110.619 Q202.531,111.434 202.711,113.337 L202.883,115.166 L209.995,114.497 L210.243,117.138 L203.131,117.808 L204.83,135.856 L201.431,136.176 L199.732,118.128 L194.209,118.647 L193.96,116.006 L199.484,115.486 L199.348,114.045 Q199.028,110.646 200.438,108.892 Q201.848,107.138 205.154,106.827 z" fill="#2D1104"/>
        <path d="M232.014,104.299 L232.28,107.125 L228.419,107.489 Q226.59,107.661 225.95,108.476 Q225.309,109.291 225.488,111.194 L225.66,113.022 L232.772,112.353 L233.021,114.995 L225.909,115.664 L227.607,133.712 L224.208,134.032 L222.509,115.984 L216.986,116.504 L216.737,113.862 L222.261,113.342 L222.125,111.901 Q221.805,108.502 223.215,106.748 Q224.625,104.994 227.932,104.683 z" fill="#2D1104"/>
        <path d="M257.416,118.756 L257.572,120.419 L242.849,121.804 L242.86,121.915 Q243.11,126.159 245.048,127.84 Q246.986,129.522 250.2,129.219 Q251.826,129.066 253.551,128.382 Q255.276,127.698 257.19,126.455 L257.508,129.836 Q255.643,130.813 253.88,131.38 Q252.116,131.946 250.435,132.104 Q245.613,132.558 242.626,129.923 Q239.638,127.287 239.16,122.207 Q238.694,117.256 241.076,114.05 Q243.458,110.844 247.892,110.427 Q251.845,110.055 254.378,112.519 Q256.912,114.983 257.416,118.756 z M253.923,118.078 Q253.5,115.956 252.013,114.521 Q250.527,113.086 248.015,113.323 Q245.558,113.554 244.122,115.329 Q242.687,117.104 242.73,119.15 z" fill="#2D1104"/>
        <path d="M280.193,116.612 L280.35,118.275 L265.627,119.661 L265.637,119.771 Q265.887,124.016 267.825,125.697 Q269.763,127.378 272.978,127.076 Q274.603,126.923 276.328,126.239 Q278.053,125.554 279.967,124.312 L280.285,127.693 Q278.421,128.669 276.657,129.236 Q274.893,129.803 273.212,129.961 Q268.391,130.415 265.403,127.779 Q262.415,125.144 261.937,120.064 Q261.471,115.113 263.853,111.907 Q266.235,108.701 270.669,108.284 Q274.622,107.912 277.156,110.375 Q279.689,112.839 280.193,116.612 z M276.7,115.935 Q276.277,113.813 274.791,112.378 Q273.305,110.943 270.792,111.179 Q268.335,111.41 266.9,113.186 Q265.464,114.961 265.507,117.007 z" fill="#2D1104"/>
        <path d="M297.566,108.921 L296.559,98.225 L299.958,97.905 L302.663,126.649 L299.264,126.969 L299.019,124.364 Q298.313,125.977 296.976,126.914 Q295.638,127.85 293.791,128.024 Q290.041,128.377 287.615,125.67 Q285.189,122.963 284.708,117.846 Q284.233,112.803 286.124,109.727 Q288.015,106.651 291.747,106.3 Q293.612,106.124 295.11,106.794 Q296.608,107.464 297.566,108.921 z M288.298,117.583 Q288.67,121.536 290.116,123.431 Q291.562,125.327 294.019,125.096 Q296.476,124.864 297.568,122.711 Q298.661,120.559 298.292,116.642 Q297.922,112.708 296.448,110.806 Q294.973,108.904 292.517,109.135 Q290.06,109.366 288.993,111.498 Q287.926,113.63 288.298,117.583 z" fill="#2D1104"/>
        <path d="M309.057,118.145 L307.85,105.325 L311.249,105.005 L312.456,117.825 Q312.718,120.615 313.83,121.833 Q314.942,123.052 317.011,122.857 Q319.412,122.631 320.528,120.821 Q321.643,119.011 321.346,115.852 L320.246,104.158 L323.663,103.837 L325.607,124.49 L322.189,124.811 L321.897,121.708 Q321.161,123.585 319.686,124.655 Q318.212,125.726 316.125,125.922 Q312.948,126.221 311.2,124.289 Q309.453,122.357 309.057,118.145 z" fill="#2D1104"/>
        <path d="M345.064,102.512 L345.377,105.837 Q343.837,105.125 342.319,104.839 Q340.802,104.553 339.268,104.698 Q336.959,104.915 335.894,105.77 Q334.828,106.625 334.972,108.158 Q335.103,109.544 336.017,110.147 Q336.931,110.751 340.372,111.079 L341.763,111.209 Q344.34,111.452 345.777,112.77 Q347.215,114.088 347.433,116.397 Q347.721,119.464 345.704,121.396 Q343.687,123.329 339.807,123.694 Q338.274,123.838 336.563,123.673 Q334.851,123.508 332.832,123.046 L332.502,119.536 Q334.497,120.336 336.279,120.662 Q338.062,120.988 339.614,120.842 Q341.867,120.63 343.019,119.599 Q344.171,118.568 344.016,116.924 Q343.793,114.559 339.182,114.08 L339.031,114.057 L337.732,113.918 Q334.741,113.622 333.265,112.391 Q331.788,111.16 331.567,108.814 Q331.288,105.84 333.149,104.034 Q335.01,102.228 338.742,101.877 Q340.405,101.721 341.967,101.881 Q343.529,102.042 345.064,102.512 z" fill="#2D1104"/>
        <path d="M360.589,94.398 L361.141,100.272 L368.863,99.546 L369.112,102.187 L361.39,102.914 L362.447,114.146 Q362.663,116.436 363.616,117.26 Q364.569,118.083 366.731,117.88 L370.555,117.52 L370.81,120.236 L366.654,120.627 Q362.83,120.987 361.115,119.601 Q359.401,118.216 359.048,114.466 L357.991,103.234 L352.467,103.754 L352.219,101.112 L357.742,100.592 L357.19,94.718 z" fill="#2D1104"/>
        <path d="M381.007,111.747 L387.509,111.135 L388.212,118.598 L381.709,119.21 z" fill="#2D1104"/>
        <path d="M401.198,96.577 L409.899,95.758 L411.59,113.733 L418.333,113.098 L418.582,115.74 L401.697,117.329 L401.449,114.687 L408.191,114.053 L406.748,98.72 L401.447,99.219 z M405.743,88.043 L409.143,87.723 L409.546,92.008 L406.147,92.328 z" fill="#2D1104"/>
        <path d="M429.734,96.221 Q427.148,96.465 426.008,98.603 Q424.867,100.742 425.239,104.695 Q425.609,108.63 427.13,110.528 Q428.65,112.425 431.237,112.182 Q433.841,111.937 434.981,109.789 Q436.121,107.641 435.75,103.706 Q435.378,99.753 433.859,97.865 Q432.339,95.976 429.734,96.221 z M429.463,93.34 Q433.767,92.934 436.311,95.509 Q438.855,98.084 439.353,103.367 Q439.852,108.669 437.841,111.663 Q435.83,114.657 431.508,115.064 Q427.203,115.469 424.67,112.903 Q422.136,110.336 421.637,105.034 Q421.14,99.751 423.149,96.748 Q425.159,93.745 429.463,93.34 z" fill="#2D1104"/>
      </g>
      <path d="M384.645,328.975 C374.487,329.3 276.777,339.561 258.288,341.968 C225.547,345.928 189.3,352.616 186.011,352.974 C181.772,353.827 190.032,360.354 199.898,359.278 C209.91,358.577 364.841,339.733 382.673,338.571 C397.07,337.392 397.288,329.16 384.645,328.975 z" fill="#2D1104" display="none"/>
      <g id="Bean" display="none">
        <g>
          <path d="M417.757,243.199 C420.031,242.1 425.598,243.547 427.354,245.509 C436.091,255.268 437.465,267.17 435.316,279.575 C429.131,315.304 392.768,351.029 353.779,359.667 C340.773,362.549 327.943,363.121 314.826,356.267 C322.496,352.288 328.717,349.181 334.815,345.871 C350.845,337.168 360.799,324.491 362.418,308.016 C365.587,275.763 388.526,257.34 417.757,243.2 z" fill="#2D1104"/>
          <path d="M417.757,243.199 C420.031,242.1 425.598,243.547 427.354,245.509 C436.091,255.268 437.465,267.17 435.316,279.575 C429.131,315.304 392.768,351.029 353.779,359.667 C340.773,362.549 327.943,363.121 314.826,356.267 C322.496,352.288 328.717,349.181 334.815,345.871 C350.845,337.168 360.799,324.491 362.418,308.016 C365.587,275.763 388.526,257.34 417.757,243.2 z" fill-opacity="0" stroke="#000000" stroke-width="2"/>
        </g>
        <g>
          <path d="M368.18,226.395 C383.632,222.66 397.989,223.677 411.771,234.574 C403.831,239.186 397.462,243.247 390.743,246.721 C371.479,256.681 359.673,271.414 354.265,290.489 C352.169,297.881 350.263,305.345 347.497,312.565 C340.645,330.446 326.121,341.581 306.992,347.89 C304.296,348.779 299.72,347.583 297.418,345.854 C285.337,336.776 281.867,324.43 284.331,310.311 C290.426,275.383 330.155,235.589 368.18,226.395 z" fill="#2D1104"/>
          <path d="M368.18,226.395 C383.632,222.66 397.989,223.677 411.771,234.574 C403.831,239.186 397.462,243.247 390.743,246.721 C371.479,256.681 359.673,271.414 354.265,290.489 C352.169,297.881 350.263,305.345 347.497,312.565 C340.645,330.446 326.121,341.581 306.992,347.89 C304.296,348.779 299.72,347.583 297.418,345.854 C285.337,336.776 281.867,324.43 284.331,310.311 C290.426,275.383 330.155,235.589 368.18,226.395 z" fill-opacity="0" stroke="#000000" stroke-width="2"/>
        </g>
      </g>
      <g id="caffee">
        <path d="M206.081,264.922 L343.718,252.196 C344.615,252.113 345.329,252.51 345.772,252.859 C346.709,253.596 347.285,254.798 347.315,256.073 C347.37,258.585 347.33,261.153 347.195,263.705 L348.303,275.6 L349.846,274.421 C357.402,272.26 362.422,271.098 362.748,273.164 C365.502,290.569 362.009,289.868 350.371,301.442 C343.82,307.957 333.584,308.3 337.804,303.119 C340.547,299.75 347.332,279.175 347.455,277.916 C348.577,266.354 356.46,246.585 333.803,251.867 z M227.361,326.392 C243.301,340.653 263.044,347.492 282.953,345.651 C301.99,343.891 319.503,334.3 332.415,318.596 C333.493,318.545 334.542,318.431 335.636,318.257 C343.089,317.077 351.122,313.159 358.257,307.225 C373.883,294.222 380.036,276.748 372.569,266.58 L372.569,266.581 C368.623,261.206 361.521,259.013 353.121,260.425 C353.154,258.895 353.153,257.368 353.119,255.859 C353.059,253.141 351.799,250.617 349.663,248.933 C347.835,247.494 345.555,246.818 343.241,247.032 L205.604,259.759 C203.295,259.972 201.18,261.052 199.649,262.798 C197.854,264.845 197.072,267.566 197.507,270.26 C201.088,292.438 211.69,312.372 227.361,326.392" fill="#2C1104"/>
        <g id="Coffeecup">
          <path d="M351.68,276.158 C355.723,274.775 359.055,274.904 360.045,276.252 C360.784,277.258 361.004,279.845 359.191,283.82 C357.221,288.137 353.595,292.63 348.979,296.473 C347.348,297.828 345.798,298.943 344.357,299.858 C347.778,292.428 350.234,284.49 351.68,276.158 z M332.263,310.426 L339.102,308.193 C343.647,306.708 348.413,303.957 352.886,300.236 C358.126,295.876 362.271,290.711 364.561,285.693 C366.891,280.585 367.018,276.198 364.919,273.34 C362.101,269.505 355.628,268.845 347.896,271.995 L346.409,272.602 L346.181,274.042 C344.438,285.049 340.87,295.336 335.576,304.618 L332.263,310.426" fill="#2C1104"/>
          <path d="M204.222,266.315 C204.591,265.893 205.22,265.373 206.113,265.291 L343.75,252.565 C344.647,252.482 345.361,252.879 345.804,253.228 C346.741,253.965 347.317,255.167 347.346,256.442 C347.401,258.954 347.362,261.522 347.227,264.074 L347.032,267.736 L350.958,266.613 C358.515,264.453 364.626,265.636 367.726,269.86 C373.473,277.686 367.485,292.924 354.38,303.829 C348.079,309.072 341.114,312.511 334.768,313.517 C333.505,313.717 332.323,313.816 331.058,313.808 L329.519,313.795 L328.62,314.929 C316.636,330.008 300.261,339.216 282.508,340.858 C245.076,344.319 210.278,313.098 203.286,269.782 C203.081,268.513 203.43,267.216 204.222,266.315 z M227.393,326.761 C243.332,341.022 263.076,347.861 282.985,346.02 C302.021,344.26 319.535,334.669 332.447,318.965 C333.525,318.914 334.574,318.8 335.668,318.626 C343.121,317.446 351.154,313.528 358.289,307.594 C373.915,294.591 380.067,277.117 372.6,266.949 L372.6,266.95 C368.655,261.575 361.552,259.382 353.153,260.794 C353.185,259.264 353.185,257.737 353.151,256.228 C353.091,253.51 351.83,250.986 349.694,249.302 C347.866,247.863 345.587,247.187 343.273,247.401 L205.635,260.128 C203.327,260.341 201.212,261.421 199.681,263.167 C197.885,265.214 197.104,267.935 197.538,270.629 C201.119,292.807 211.721,312.741 227.393,326.761" fill="#2C1104"/>
          <path d="M277.273,190.357 C276.177,191.823 275.038,193.159 273.603,194.519 C272.162,195.939 270.59,197.395 268.94,198.914 C265.717,201.987 262.131,205.475 259.621,210.068 C257.066,214.628 256.284,220.24 257.538,224.98 C258.692,229.793 261.393,233.89 264.718,237.179 C268.107,240.436 272.078,243.053 276.531,244.616 C270.789,238.004 266.764,230.628 266.591,223.739 C266.524,220.31 267.435,217.31 269.337,214.519 C271.226,211.697 274.081,208.952 277.284,205.969 C283.473,200.336 292.091,191.401 289.863,180.231 C289.24,177.53 287.703,174.928 285.566,173.1 C283.444,171.249 280.995,170.095 278.68,169.31 C273.976,167.767 269.662,167.197 265.366,165.346 C267.98,169.003 272.538,171.259 275.808,173.735 C279.27,176.177 280.961,178.757 280.852,181.523 C280.861,184.287 279.415,187.462 277.273,190.357" fill="#2C1104"/>
          <path d="M250.697,241.245 C246.465,237.026 243.232,232.281 242.066,227.266 C240.902,222.259 242.22,217.255 245.593,213.21 C249.082,209.023 253.978,204.81 257.208,199.458 C258.818,196.808 260.167,193.686 259.782,190.397 C259.307,187.065 256.693,184.614 253.88,183.378 C255.951,185.562 257.306,188.072 256.947,190.511 C256.652,192.944 255.115,195.211 253.4,197.364 C249.812,201.718 245.191,205.347 240.921,210.223 C238.877,212.828 237.318,215.86 236.731,219.063 C236.208,222.259 236.484,225.542 237.703,228.44 C240.028,234.289 244.977,238.751 250.697,241.245" fill="#2C1104"/>
          <path d="M285.043,213.284 C283.534,215.778 282.639,218.632 282.619,221.462 C282.632,224.283 283.287,227.039 284.604,229.438 C287.145,234.265 291.525,237.95 296.583,240.016 C293.033,236.236 290.224,232.188 288.84,227.924 C287.442,223.657 287.873,219.356 290.13,215.685 C292.397,212.003 296.492,208.566 299.901,204.407 C301.617,202.334 303.167,199.962 303.939,197.331 C304.685,194.698 304.439,191.903 303.196,189.673 C303.318,194.836 300.228,198.537 296.483,201.838 C292.791,205.222 288.22,208.286 285.043,213.284" fill="#2C1104"/>
        </g>
        <g id="Bean" display="none">
          <g>
            <path d="M302.328,267.415 C303.996,267.497 303.344,267.286 304.357,267.743 C307.182,269.884 308.295,272.982 308.556,276.399 C309.306,286.24 302.474,297.664 293.235,302.012 C290.153,303.463 286.966,304.289 283.228,303.152 C284.899,301.689 286.261,300.535 287.58,299.334 C291.046,296.174 292.73,292.275 292.074,287.802 C290.789,279.045 295.365,272.934 301.797,267.632 L301.797,267.632 L302.328,267.415 z" clip-path="url(#Clip_1)" filter="url(#Shadow_2)" fill="rgba(0,0,0,0.75)"/>
            <path d="M301.797,267.632 C302.297,267.22 303.789,267.313 304.357,267.743 C307.182,269.884 308.295,272.982 308.556,276.399 C309.306,286.24 302.474,297.664 293.235,302.012 C290.153,303.463 286.966,304.289 283.228,303.152 C284.899,301.689 286.261,300.535 287.58,299.334 C291.046,296.174 292.73,292.275 292.074,287.802 C290.789,279.045 295.365,272.934 301.797,267.632 z" fill="#6E3827"/>
            <path d="M277.228,259.415 L314.612,259.415 L314.612,311.684 L277.228,311.684 z M302.328,267.415 L301.797,267.632 L301.797,267.632 C295.365,272.934 290.789,279.045 292.074,287.802 C292.73,292.275 291.046,296.174 287.58,299.334 C286.261,300.535 284.899,301.689 283.228,303.152 C286.966,304.289 290.153,303.463 293.235,302.012 C302.474,297.664 309.306,286.24 308.556,276.399 C308.295,272.982 307.182,269.884 304.357,267.743 C303.344,267.286 303.996,267.497 302.328,267.415 z" clip-path="url(#Clip_3)" filter="url(#InnerShadow_4)" fill="rgba(0,0,0,0.449)"/>
          </g>
          <g>
            <path d="M294.923,263.722 C298.434,264.556 296.961,264.009 299.426,265.121 C297.728,266.766 296.39,268.182 294.926,269.461 C290.728,273.125 288.712,277.669 288.584,283.033 C288.534,285.112 288.537,287.2 288.307,289.269 C287.739,294.391 284.808,298.119 280.409,300.804 C279.789,301.182 278.562,301.104 277.872,300.765 C274.251,298.981 272.583,295.875 272.291,291.985 C271.569,282.362 278.984,269.677 287.946,265.232 L287.945,265.232 C290.682,263.822 291.964,263.833 294.923,263.722 z" clip-path="url(#Clip_5)" filter="url(#Shadow_6)" fill="rgba(0,0,0,0.75)"/>
            <path d="M287.946,265.232 C291.587,263.426 295.26,262.942 299.426,265.121 C297.728,266.766 296.39,268.182 294.926,269.461 C290.728,273.125 288.712,277.669 288.584,283.033 C288.534,285.112 288.537,287.2 288.307,289.269 C287.739,294.391 284.808,298.119 280.409,300.804 C279.789,301.182 278.562,301.104 277.872,300.765 C274.251,298.981 272.583,295.875 272.291,291.985 C271.569,282.362 278.984,269.677 287.946,265.232 z" fill="#6E3827"/>
            <path d="M266.242,255.722 L305.426,255.722 L305.426,309.055 L266.242,309.055 z M294.923,263.722 C291.964,263.833 290.682,263.822 287.945,265.232 L287.946,265.232 C278.984,269.677 271.569,282.362 272.291,291.985 C272.583,295.875 274.251,298.981 277.872,300.765 C278.562,301.104 279.789,301.182 280.409,300.804 C284.808,298.119 287.739,294.391 288.307,289.269 C288.537,287.2 288.534,285.112 288.584,283.033 C288.712,277.669 290.728,273.125 294.926,269.461 C296.39,268.182 297.728,266.766 299.426,265.121 C296.961,264.009 298.434,264.556 294.923,263.722 z" clip-path="url(#Clip_7)" filter="url(#InnerShadow_8)" fill="rgba(0,0,0,0.449)"/>
          </g>
        </g>
        <g id="Bean" display="none">
          <g>
            <path d="M316.569,300.28 C317.2,300.13 318.498,300.872 318.818,301.509 C320.409,304.676 320.041,307.947 318.768,311.128 C315.101,320.291 303.93,327.531 293.72,327.358 C290.314,327.3 287.09,326.636 284.237,323.967 C286.381,323.391 288.113,322.956 289.827,322.459 C294.331,321.152 297.562,318.396 298.946,314.092 C301.656,305.667 308.458,302.2 316.569,300.28 L316.569,300.28 z" clip-path="url(#Clip_9)" filter="url(#Shadow_10)" fill="rgba(0,0,0,0.75)"/>
            <path d="M316.569,300.28 C317.2,300.13 318.498,300.872 318.818,301.509 C320.409,304.676 320.041,307.947 318.768,311.128 C315.101,320.291 303.93,327.531 293.72,327.358 C290.314,327.3 287.09,326.636 284.237,323.967 C286.381,323.391 288.113,322.956 289.827,322.459 C294.331,321.152 297.562,318.396 298.946,314.092 C301.656,305.667 308.458,302.2 316.569,300.28 z" fill="#6E3827"/>
            <path d="M278.237,292.26 L325.873,292.26 L325.873,335.361 L278.237,335.361 z M316.569,300.28 L316.569,300.28 C308.458,302.2 301.656,305.667 298.946,314.092 C297.562,318.396 294.331,321.152 289.827,322.459 C288.113,322.956 286.381,323.391 284.237,323.967 C287.09,326.636 290.314,327.3 293.72,327.358 C303.93,327.531 315.101,320.291 318.768,311.128 C320.041,307.947 320.409,304.676 318.818,301.509 C318.498,300.872 317.2,300.13 316.569,300.28 z" clip-path="url(#Clip_11)" filter="url(#InnerShadow_12)" fill="rgba(0,0,0,0.449)"/>
          </g>
          <g>
            <path d="M306.805,293.648 C310.567,293.918 313.317,295.723 315.659,298.56 C313.41,299.287 311.584,299.968 309.707,300.469 C304.323,301.906 300.509,305.095 298.028,309.853 C297.066,311.697 296.148,313.572 295.03,315.327 C292.26,319.673 287.985,321.726 282.853,322.195 C282.129,322.261 281.063,321.65 280.593,321.041 C278.13,317.843 278.003,314.32 279.457,310.7 C283.054,301.746 295.304,293.632 305.307,293.595 L306.805,293.648 z" clip-path="url(#Clip_13)" filter="url(#Shadow_14)" fill="rgba(0,0,0,0.75)"/>
            <path d="M305.307,293.595 C309.372,293.58 312.882,294.767 315.659,298.56 C313.41,299.287 311.584,299.968 309.707,300.469 C304.323,301.906 300.509,305.095 298.028,309.853 C297.066,311.697 296.148,313.572 295.03,315.327 C292.26,319.673 287.985,321.726 282.853,322.195 C282.129,322.261 281.063,321.65 280.593,321.041 C278.13,317.843 278.003,314.32 279.457,310.7 C283.054,301.746 295.304,293.632 305.307,293.595 z" fill="#6E3827"/>
            <path d="M272.518,285.595 L321.659,285.595 L321.659,330.2 L272.518,330.2 z M306.805,293.648 L305.307,293.595 C295.304,293.632 283.054,301.746 279.457,310.7 C278.003,314.32 278.13,317.843 280.593,321.041 C281.063,321.65 282.129,322.261 282.853,322.195 C287.985,321.726 292.26,319.673 295.03,315.327 C296.148,313.572 297.066,311.697 298.028,309.853 C300.509,305.095 304.323,301.906 309.707,300.469 C311.584,299.968 313.41,299.287 315.659,298.56 C313.317,295.723 310.567,293.918 306.805,293.648 z" clip-path="url(#Clip_15)" filter="url(#InnerShadow_16)" fill="rgba(0,0,0,0.449)"/>
          </g>
        </g>
        <g id="Bean" display="none">
          <g>
            <path d="M236.136,291.152 C237.867,293.276 239.228,295.008 240.658,296.687 C244.417,301.099 249.404,303.318 255.472,302.645 C267.351,301.329 274.907,307.215 281.133,315.386 L281.133,315.385 C281.617,316.021 281.293,317.874 280.641,318.566 C277.401,322.011 273.111,323.296 268.508,323.51 C255.252,324.128 240.894,315.264 236.319,303.634 C234.793,299.754 234.115,295.764 236.136,291.152 z" clip-path="url(#Clip_17)" filter="url(#Shadow_18)" fill="rgba(0,0,0,0.75)"/>
            <path d="M281.133,315.385 C281.617,316.021 281.293,317.874 280.641,318.566 C277.401,322.011 273.111,323.296 268.508,323.51 C255.252,324.128 240.894,315.264 236.319,303.634 C234.793,299.754 234.115,295.764 236.136,291.152 C237.867,293.276 239.228,295.008 240.658,296.687 C244.417,301.099 249.404,303.318 255.472,302.645 C267.351,301.329 274.907,307.215 281.133,315.386 z" fill="#6E3827"/>
            <path d="M228.878,283.152 L287.365,283.152 L287.365,331.54 L228.878,331.54 z M236.136,291.152 C234.115,295.764 234.793,299.754 236.319,303.634 C240.894,315.264 255.252,324.128 268.508,323.51 C273.111,323.296 277.401,322.011 280.641,318.566 C281.293,317.874 281.617,316.021 281.133,315.385 L281.133,315.386 C274.907,307.215 267.351,301.329 255.472,302.645 C249.404,303.318 244.417,301.099 240.658,296.687 C239.228,295.008 237.867,293.276 236.136,291.152 z" clip-path="url(#Clip_19)" filter="url(#InnerShadow_20)" fill="rgba(0,0,0,0.449)"/>
          </g>
          <g>
            <path d="M250.795,278.343 C263.756,277.754 279.72,287.384 284.463,298.671 L284.463,298.671 C286.39,303.258 286.544,307.842 283.073,312.953 C281.101,310.789 279.387,309.079 277.875,307.217 C273.538,301.879 267.734,299.225 260.579,298.894 C257.807,298.765 255.015,298.701 252.281,298.35 C245.51,297.479 240.918,293.714 237.918,288.156 C237.495,287.373 237.764,285.849 238.311,285.002 C241.18,280.556 245.556,278.581 250.795,278.343 z" clip-path="url(#Clip_21)" filter="url(#Shadow_22)" fill="rgba(0,0,0,0.75)"/>
            <path d="M284.463,298.671 C286.39,303.258 286.544,307.842 283.073,312.953 C281.101,310.789 279.387,309.079 277.875,307.217 C273.538,301.879 267.734,299.225 260.579,298.894 C257.807,298.765 255.015,298.701 252.281,298.35 C245.51,297.479 240.918,293.714 237.918,288.156 C237.495,287.373 237.764,285.849 238.311,285.002 C241.18,280.556 245.556,278.581 250.795,278.343 C263.756,277.754 279.72,287.384 284.463,298.671 z" fill="#6E3827"/>
            <path d="M231.71,270.317 L291.819,270.317 L291.819,320.953 L231.71,320.953 z M250.795,278.343 C245.556,278.581 241.18,280.556 238.311,285.002 C237.764,285.849 237.495,287.373 237.918,288.156 C240.918,293.714 245.51,297.479 252.281,298.35 C255.015,298.701 257.807,298.765 260.579,298.894 C267.734,299.225 273.538,301.879 277.875,307.217 C279.387,309.079 281.101,310.789 283.073,312.953 C286.544,307.842 286.39,303.258 284.463,298.671 L284.463,298.671 C279.72,287.384 263.756,277.754 250.795,278.343 z" clip-path="url(#Clip_23)" filter="url(#InnerShadow_24)" fill="rgba(0,0,0,0.449)"/>
          </g>
        </g>
      </g>
      <path d="M51.728,208.467 L49.572,189.809 L163.613,227.924 L165.58,244.941 L61.444,292.528 L59.276,273.768 L143.245,237.463 z" fill="#2D1104"/>
    </g>
    <text transform="matrix(0.996, -0.094, 0.094, 0.996, 304.815, 118.042)" display="none">
      <tspan x="-160.04" y="8.775" font-family="Menlo-Regular" font-size="38" fill="#2D1104">coffeedust.io</tspan>
    </text>
  </g>
</svg>
