<?xml version="1.0" encoding="UTF-8"?>
<!DOCTYPE svg PUBLIC "-//W3C//DTD SVG 1.1//EN" "http://www.w3.org/Graphics/SVG/1.1/DTD/svg11.dtd">
<svg version="1.1" xmlns="http://www.w3.org/2000/svg" xmlns:xlink="http://www.w3.org/1999/xlink" x="0" y="0" width="600" height="500" viewBox="0, 0, 600, 500">
  <defs>
    <clipPath id="Clip_1">
      <path d="M347.527,257.239 L389.255,257.239 L389.255,317.531 L347.527,317.531 z M375.304,265.257 L374.671,265.537 L374.671,265.538 C367.102,272.153 361.8,279.68 363.654,290.191 C364.601,295.56 362.708,300.32 358.639,304.25 C357.092,305.745 355.489,307.184 353.527,309.005 C358.072,310.245 361.885,309.138 365.55,307.281 C376.536,301.717 384.373,287.706 383.125,275.869 C382.691,271.759 381.241,268.064 377.762,265.582 C376.524,265.066 377.317,265.297 375.304,265.257 z"/>
    </clipPath>
    <filter id="Shadow_2">
      <feGaussianBlur in="SourceAlpha" stdDeviation="2.5"/>
      <feOffset dx="0" dy="2" result="offsetblur"/>
      <feFlood flood-color="#000000"/>
      <feComposite in2="offsetblur" operator="in"/>
    </filter>
    <clipPath id="Clip_3">
      <path d="M375.304,265.257 C377.317,265.297 376.524,265.066 377.762,265.582 C381.241,268.064 382.691,271.759 383.125,275.869 C384.373,287.706 376.536,301.717 365.55,307.281 C361.885,309.138 358.072,310.245 353.527,309.005 C355.489,307.184 357.092,305.745 358.639,304.25 C362.708,300.32 364.601,295.56 363.654,290.191 C361.8,279.68 367.102,272.153 374.671,265.538 L374.671,265.537 L375.304,265.257 z"/>
    </clipPath>
    <filter id="InnerShadow_4">
      <feGaussianBlur in="SourceAlpha" stdDeviation="2.5"/>
      <feOffset dx="0" dy="2" result="offsetblur"/>
      <feFlood flood-color="#000000"/>
      <feComposite in2="offsetblur" operator="in"/>
    </filter>
    <clipPath id="Clip_5">
      <path d="M333.837,253.064 L377.725,253.064 L377.725,314.617 L333.837,314.617 z M366.248,261.064 C362.633,261.304 361.198,261.315 357.889,263.127 L357.889,263.127 C347.242,268.799 338.745,284.35 339.951,295.925 C340.439,300.604 342.558,304.29 346.986,306.314 C347.829,306.699 349.311,306.751 350.046,306.273 C355.255,302.883 358.659,298.286 359.165,292.091 C359.369,289.59 359.293,287.073 359.28,284.565 C359.247,278.094 361.519,272.545 366.452,267.981 C368.172,266.389 369.736,264.636 371.725,262.593 C368.714,261.338 370.509,261.947 366.248,261.064 z"/>
    </clipPath>
    <filter id="Shadow_6">
      <feGaussianBlur in="SourceAlpha" stdDeviation="2.5"/>
      <feOffset dx="0" dy="2" result="offsetblur"/>
      <feFlood flood-color="#000000"/>
      <feComposite in2="offsetblur" operator="in"/>
    </filter>
    <clipPath id="Clip_7">
      <path d="M366.248,261.064 C370.509,261.947 368.714,261.338 371.725,262.593 C369.736,264.636 368.172,266.389 366.452,267.981 C361.519,272.545 359.247,278.094 359.28,284.565 C359.293,287.073 359.369,289.59 359.165,292.091 C358.659,298.286 355.255,302.883 350.046,306.273 C349.311,306.751 347.829,306.699 346.986,306.314 C342.558,304.29 340.439,300.604 339.951,295.925 C338.745,284.35 347.242,268.799 357.889,263.127 L357.889,263.127 C361.198,261.315 362.633,261.304 366.248,261.064 z"/>
    </clipPath>
    <filter id="InnerShadow_8">
      <feGaussianBlur in="SourceAlpha" stdDeviation="2.5"/>
      <feOffset dx="0" dy="2" result="offsetblur"/>
      <feFlood flood-color="#000000"/>
      <feComposite in2="offsetblur" operator="in"/>
    </filter>
    <clipPath id="Clip_9">
      <path d="M349.469,296.349 L403.805,296.349 L403.805,345.821 L349.469,345.821 z M393.937,304.349 L393.619,304.378 L393.619,304.378 C383.908,306.977 375.829,311.393 372.857,321.644 C371.338,326.881 367.54,330.317 362.155,332.05 C360.107,332.708 358.034,333.293 355.469,334.062 C359.002,337.18 362.912,337.868 367.02,337.818 C379.334,337.671 392.548,328.553 396.648,317.379 C398.072,313.5 398.401,309.544 396.373,305.781 C395.723,305.039 394.957,304.455 393.937,304.349 z"/>
    </clipPath>
    <filter id="Shadow_10">
      <feGaussianBlur in="SourceAlpha" stdDeviation="2.5"/>
      <feOffset dx="0" dy="2" result="offsetblur"/>
      <feFlood flood-color="#000000"/>
      <feComposite in2="offsetblur" operator="in"/>
    </filter>
    <clipPath id="Clip_11">
      <path d="M393.937,304.349 C394.957,304.455 395.723,305.039 396.373,305.781 C398.401,309.544 398.072,313.5 396.648,317.379 C392.548,328.553 379.334,337.671 367.02,337.818 C362.912,337.868 359.002,337.18 355.469,334.062 C358.034,333.293 360.107,332.708 362.155,332.05 C367.54,330.317 371.338,326.881 372.857,321.644 C375.829,311.393 383.908,306.977 393.619,304.378 L393.619,304.378 L393.937,304.349 z"/>
    </clipPath>
    <filter id="InnerShadow_12">
      <feGaussianBlur in="SourceAlpha" stdDeviation="2.5"/>
      <feOffset dx="0" dy="2" result="offsetblur"/>
      <feFlood flood-color="#000000"/>
      <feComposite in2="offsetblur" operator="in"/>
    </filter>
    <clipPath id="Clip_13">
      <path d="M342.263,288.7 L398.462,288.7 L398.462,339.985 L342.263,339.985 z M379.809,296.713 L379.809,296.713 C367.752,297.107 353.267,307.316 349.244,318.236 C347.617,322.65 347.894,326.893 350.975,330.662 C351.562,331.38 352.869,332.08 353.739,331.975 C359.91,331.23 364.992,328.606 368.178,323.269 C369.465,321.115 370.507,318.822 371.602,316.566 C374.427,310.744 378.913,306.767 385.353,304.846 C387.599,304.176 389.776,303.292 392.462,302.336 C388.981,297.861 384.709,296.553 379.809,296.713 z"/>
    </clipPath>
    <filter id="Shadow_14">
      <feGaussianBlur in="SourceAlpha" stdDeviation="2.5"/>
      <feOffset dx="0" dy="2" result="offsetblur"/>
      <feFlood flood-color="#000000"/>
      <feComposite in2="offsetblur" operator="in"/>
    </filter>
    <clipPath id="Clip_15">
      <path d="M379.809,296.713 C384.709,296.553 388.981,297.861 392.462,302.336 C389.776,303.292 387.599,304.176 385.353,304.846 C378.913,306.767 374.427,310.744 371.602,316.566 C370.507,318.822 369.465,321.115 368.178,323.269 C364.992,328.606 359.91,331.23 353.739,331.975 C352.869,332.08 351.562,331.38 350.975,330.662 C347.894,326.893 347.617,322.65 349.244,318.236 C353.267,307.316 367.752,297.107 379.809,296.713 L379.809,296.713 z"/>
    </clipPath>
    <filter id="InnerShadow_16">
      <feGaussianBlur in="SourceAlpha" stdDeviation="2.5"/>
      <feOffset dx="0" dy="2" result="offsetblur"/>
      <feFlood flood-color="#000000"/>
      <feComposite in2="offsetblur" operator="in"/>
    </filter>
    <clipPath id="Clip_17">
      <path d="M289.016,288.183 L357.743,288.183 L357.743,342.158 L289.016,342.158 z M296.337,296.183 C294.062,301.814 295.019,306.6 296.994,311.223 C302.916,325.084 320.533,335.268 336.492,334.06 C342.033,333.641 347.161,331.943 350.946,327.677 C351.707,326.82 352.033,324.575 351.427,323.826 L351.427,323.826 C343.638,314.194 334.322,307.362 320.048,309.363 C312.758,310.386 306.668,307.885 301.981,302.697 C300.199,300.724 298.499,298.684 296.337,296.183 z"/>
    </clipPath>
    <filter id="Shadow_18">
      <feGaussianBlur in="SourceAlpha" stdDeviation="2.5"/>
      <feOffset dx="0" dy="2" result="offsetblur"/>
      <feFlood flood-color="#000000"/>
      <feComposite in2="offsetblur" operator="in"/>
    </filter>
    <clipPath id="Clip_19">
      <path d="M296.337,296.183 C298.499,298.684 300.199,300.724 301.981,302.697 C306.668,307.885 312.758,310.386 320.048,309.363 C334.322,307.362 343.638,314.194 351.427,323.826 L351.427,323.826 C352.033,324.575 351.707,326.82 350.946,327.677 C347.161,331.943 342.033,333.641 336.492,334.06 C320.533,335.268 302.916,325.084 296.994,311.223 C295.019,306.6 294.062,301.814 296.337,296.183 z"/>
    </clipPath>
    <filter id="InnerShadow_20">
      <feGaussianBlur in="SourceAlpha" stdDeviation="2.5"/>
      <feOffset dx="0" dy="2" result="offsetblur"/>
      <feFlood flood-color="#000000"/>
      <feComposite in2="offsetblur" operator="in"/>
    </filter>
    <clipPath id="Clip_21">
      <path d="M292.094,272.153 L362.713,272.153 L362.713,328.825 L292.094,328.825 z M316.529,280.153 L313.561,280.23 C307.254,280.7 302.048,283.233 298.744,288.694 C298.115,289.734 297.844,291.58 298.381,292.51 C302.192,299.105 307.858,303.483 316.052,304.296 C319.36,304.625 322.728,304.604 326.075,304.662 C334.711,304.812 341.801,307.808 347.215,314.092 C349.103,316.284 351.229,318.285 353.682,320.825 C357.687,314.542 357.342,309.022 354.859,303.56 L354.858,303.56 C347.451,289.367 332.111,281.348 316.529,280.153 z"/>
    </clipPath>
    <filter id="Shadow_22">
      <feGaussianBlur in="SourceAlpha" stdDeviation="2.5"/>
      <feOffset dx="0" dy="2" result="offsetblur"/>
      <feFlood flood-color="#000000"/>
      <feComposite in2="offsetblur" operator="in"/>
    </filter>
    <clipPath id="Clip_23">
      <path d="M316.529,280.153 C332.111,281.348 347.451,289.367 354.858,303.56 L354.859,303.56 C357.342,309.022 357.687,314.542 353.682,320.825 C351.229,318.285 349.103,316.284 347.215,314.092 C341.801,307.808 334.711,304.812 326.075,304.662 C322.728,304.604 319.36,304.625 316.052,304.296 C307.858,303.483 302.192,299.105 298.381,292.51 C297.844,291.58 298.115,289.734 298.744,288.694 C302.048,283.233 307.254,280.7 313.561,280.23 L316.529,280.153 z"/>
    </clipPath>
    <filter id="InnerShadow_24">
      <feGaussianBlur in="SourceAlpha" stdDeviation="2.5"/>
      <feOffset dx="0" dy="2" result="offsetblur"/>
      <feFlood flood-color="#000000"/>
      <feComposite in2="offsetblur" operator="in"/>
    </filter>
  </defs>
  <g id="Layer_1">
    <g id="WindowLogo">
      <g>
        <path d="M31.854,70.526 L530.852,23.566 C537.679,22.924 543.735,27.938 544.378,34.765 L580.345,416.948 C580.987,423.775 575.973,429.831 569.146,430.474 L70.148,477.434 C63.321,478.076 57.265,473.062 56.622,466.235 L20.655,84.052 C20.013,77.225 25.027,71.169 31.854,70.526 z" fill="#383838"/>
        <path d="M31.854,70.526 L530.852,23.566 C537.679,22.924 543.735,27.938 544.378,34.765 L580.345,416.948 C580.987,423.775 575.973,429.831 569.146,430.474 L70.148,477.434 C63.321,478.076 57.265,473.062 56.622,466.235 L20.655,84.052 C20.013,77.225 25.027,71.169 31.854,70.526 z" fill-opacity="0" stroke="#000000" stroke-width="1"/>
      </g>
      <path d="M523.295,97.167 L523.972,100.287 C525.044,102.24 556.827,403.962 556.054,404.83 C555.176,405.815 82.472,454.612 81.408,453.833 C80.47,453.147 48.437,152.923 49.077,150.788 L49.481,149.438 L523.295,97.167 z" fill="#737373"/>
      <path d="M131.396,84.465 C133.616,84.202 135.831,84.235 137.999,84.78 C141.645,86.071 145.695,89.048 145.835,90.541 C145.851,90.708 146.302,91.499 146.838,92.3 C150.248,97.401 147.679,106.076 141.527,110.234 C138.908,112.004 131.42,112.845 129.272,111.609 C128.543,111.19 127.79,110.862 127.598,110.88 C127.128,110.924 123.252,107.668 122.476,106.578 C120.916,104.384 120.694,103.67 120.292,99.545 C119.718,93.654 122.247,88.342 126.533,86.436 C127.181,86.148 128.038,85.644 128.438,85.315 C129.803,84.596 128.866,85.012 131.396,84.465 z" fill="#7F5A3E"/>
      <path d="M93.443,87.96 C97.689,88.318 95.902,87.913 98.873,88.817 C110.137,93.137 111.791,106.888 101.898,113.953 C96.358,117.908 84.248,115.258 82.348,109.674 C82.167,109.139 81.712,108.412 81.338,108.059 C80.869,107.616 80.509,106.364 80.183,104.029 C79.496,94.771 84.694,89.622 93.443,87.96 z" fill="#673F21"/>
      <path d="M51.558,91.985 C56.635,92.078 54.489,91.668 58.077,92.699 C72.477,98.221 70.04,118.178 54.791,119.608 C48.428,120.205 44.57,118.337 41.186,113.02 C37.061,105.934 40.225,96.904 47.571,93.271 C48.822,92.652 50.229,92.413 51.558,91.985 z" fill="#4E280B"/>
      <path d="M468.078,336.597 L468.488,337.579 C469.186,339.25 470.675,351.464 470.302,352.46 C469.884,353.58 248.552,383.725 245.434,383.086 L243.941,382.781 L242.945,375.378 C242.061,368.804 242.031,367.911 242.68,367.406 C243.17,367.025 280.282,361.875 355.743,351.718 L468.078,336.597 z" fill="#2C1104"/>
      <path d="M522.615,40.355 C522.626,40.617 526.438,82.108 525.847,81.89 L166.834,118.036 C167.042,118.291 162.649,76.436 163.686,75.242 L522.615,40.355 z" fill="#737373" display="none"/>
      <g id="Bean" display="none">
        <g>
          <path d="M431.574,246.605 C433.848,245.505 439.414,246.952 441.171,248.914 C449.908,258.673 451.282,270.576 449.133,282.981 C442.948,318.71 406.585,354.434 367.596,363.072 C354.59,365.954 341.759,366.527 328.643,359.672 C336.313,355.693 342.534,352.586 348.632,349.276 C364.662,340.573 374.616,327.896 376.235,311.421 C379.404,279.168 402.343,260.746 431.574,246.605 z" fill="#2D1104"/>
          <path d="M431.574,246.605 C433.848,245.505 439.414,246.952 441.171,248.914 C449.908,258.673 451.282,270.576 449.133,282.981 C442.948,318.71 406.585,354.434 367.596,363.072 C354.59,365.954 341.759,366.527 328.643,359.672 C336.313,355.693 342.534,352.586 348.632,349.276 C364.662,340.573 374.616,327.896 376.235,311.421 C379.404,279.168 402.343,260.746 431.574,246.605 z" fill-opacity="0" stroke="#000000" stroke-width="2"/>
        </g>
        <g>
          <path d="M381.997,229.8 C397.449,226.065 411.806,227.082 425.588,237.979 C417.648,242.591 411.279,246.652 404.56,250.126 C385.296,260.087 373.49,274.819 368.082,293.894 C365.986,301.286 364.08,308.751 361.314,315.97 C354.462,333.851 339.938,344.986 320.809,351.295 C318.113,352.184 313.537,350.988 311.235,349.259 C299.153,340.181 295.684,327.836 298.148,313.716 C304.243,278.788 343.972,238.995 381.997,229.8 z" fill="#2D1104"/>
          <path d="M381.997,229.8 C397.449,226.065 411.806,227.082 425.588,237.979 C417.648,242.591 411.279,246.652 404.56,250.126 C385.296,260.087 373.49,274.819 368.082,293.894 C365.986,301.286 364.08,308.751 361.314,315.97 C354.462,333.851 339.938,344.986 320.809,351.295 C318.113,352.184 313.537,350.988 311.235,349.259 C299.153,340.181 295.684,327.836 298.148,313.716 C304.243,278.788 343.972,238.995 381.997,229.8 z" fill-opacity="0" stroke="#000000" stroke-width="2"/>
        </g>
      </g>
      <g id="caffee">
        <path d="M259.19,265.612 L424.668,245.464 C425.747,245.333 426.621,245.787 427.167,246.192 C428.323,247.049 429.059,248.477 429.139,250.013 C429.293,253.04 429.336,256.137 429.261,259.218 L431.012,273.518 L432.832,272.043 C441.865,269.175 447.875,267.599 448.342,270.077 C452.269,290.963 448.034,290.24 434.408,304.599 C426.739,312.681 414.411,313.452 419.317,307.059 C422.506,302.902 429.967,277.862 430.071,276.34 C431.019,262.362 439.832,238.255 412.704,245.414 z M286.99,338.972 C306.703,355.607 330.743,363.161 354.679,360.247 C377.566,357.46 398.343,345.287 413.361,325.905 C414.659,325.806 415.919,325.632 417.232,325.385 C426.176,323.701 435.723,318.697 444.117,311.295 C462.5,295.074 469.307,273.795 459.95,261.798 L459.95,261.798 C455.006,255.457 446.367,253.062 436.291,255.057 C436.277,253.21 436.223,251.37 436.129,249.553 C435.962,246.277 434.354,243.279 431.72,241.324 C429.466,239.653 426.695,238.918 423.913,239.257 L258.434,259.404 C255.659,259.742 253.147,261.118 251.362,263.276 C249.269,265.807 248.422,269.114 249.04,272.347 C254.131,298.957 267.608,322.618 286.99,338.972" fill="#2C1104"/>
        <g id="Coffeecup">
          <path d="M435.103,274.074 C439.929,272.265 443.95,272.304 445.19,273.894 C446.116,275.082 446.472,278.193 444.425,283.048 C442.201,288.32 437.986,293.864 432.556,298.657 C430.638,300.347 428.808,301.745 427.103,302.899 C430.968,293.823 433.65,284.168 435.103,274.074 z M412.892,316.061 L421.058,313.131 C426.486,311.182 432.136,307.699 437.398,303.058 C443.562,297.619 448.379,291.247 450.964,285.118 C453.594,278.879 453.595,273.586 450.964,270.214 C447.434,265.689 439.607,265.119 430.397,269.187 L428.624,269.97 L428.4,271.714 C426.683,285.044 422.741,297.57 416.683,308.944 L412.892,316.061" fill="#2C1104"/>
          <path d="M256.998,267.357 C257.428,266.835 258.168,266.186 259.241,266.056 L424.719,245.908 C425.798,245.777 426.672,246.23 427.218,246.636 C428.374,247.492 429.111,248.921 429.19,250.456 C429.344,253.483 429.387,256.581 429.312,259.661 L429.206,264.082 L433.9,262.592 C442.933,259.724 450.342,260.937 454.227,265.92 C461.428,275.154 454.742,293.733 439.324,307.337 C431.911,313.877 423.635,318.266 416.02,319.7 C414.504,319.986 413.083,320.146 411.558,320.18 L409.702,320.218 L408.657,321.617 C394.738,340.214 375.319,351.886 353.975,354.485 C308.972,359.964 265.932,323.542 255.99,271.568 C255.698,270.046 256.075,268.47 256.998,267.357 z M287.041,339.416 C306.754,356.05 330.794,363.605 354.73,360.691 C377.617,357.904 398.395,345.731 413.412,326.349 C414.71,326.249 415.97,326.075 417.283,325.828 C426.227,324.145 435.774,319.141 444.168,311.739 C462.551,295.518 469.358,274.238 460.001,262.241 L460.001,262.242 C455.057,255.901 446.418,253.505 436.342,255.501 C436.328,253.654 436.274,251.814 436.18,249.996 C436.013,246.721 434.405,243.722 431.772,241.768 C429.518,240.096 426.746,239.362 423.964,239.7 L258.485,259.848 C255.71,260.186 253.198,261.561 251.413,263.72 C249.32,266.251 248.473,269.558 249.091,272.79 C254.182,299.401 267.659,323.062 287.041,339.416" fill="#2C1104"/>
          <path d="M342.409,173.238 C341.139,175.043 339.812,176.694 338.129,178.383 C336.442,180.145 334.598,181.955 332.662,183.845 C328.884,187.662 324.682,191.991 321.817,197.616 C318.896,203.202 318.15,209.995 319.828,215.665 C321.386,221.426 324.785,226.272 328.908,230.121 C333.108,233.928 337.986,236.944 343.409,238.673 C336.255,230.902 331.146,222.151 330.697,213.853 C330.496,209.721 331.49,206.073 333.686,202.642 C335.864,199.174 339.21,195.766 342.968,192.058 C350.232,185.051 360.308,173.979 357.233,160.591 C356.388,157.356 354.443,154.273 351.803,152.145 C349.181,149.988 346.188,148.681 343.37,147.817 C337.645,146.12 332.425,145.584 327.182,143.503 C330.46,147.82 336.034,150.381 340.062,153.251 C344.321,156.073 346.45,159.125 346.415,162.463 C346.522,165.795 344.89,169.673 342.409,173.238" fill="#2C1104"/>
          <path d="M312.148,235.511 C306.899,230.573 302.836,224.966 301.255,218.961 C299.677,212.966 301.091,206.888 305.016,201.894 C309.076,196.724 314.831,191.474 318.539,184.909 C320.386,181.659 321.904,177.848 321.325,173.897 C320.636,169.896 317.398,167.033 313.964,165.641 C316.538,168.201 318.259,171.181 317.911,174.133 C317.641,177.076 315.866,179.863 313.875,182.519 C309.701,187.892 304.257,192.428 299.28,198.456 C296.907,201.668 295.133,205.377 294.538,209.258 C294.019,213.129 294.466,217.078 296.037,220.529 C299.044,227.498 305.165,232.705 312.148,235.511" fill="#2C1104"/>
          <path d="M352.576,200.605 C350.844,203.665 349.865,207.136 349.94,210.548 C350.054,213.948 350.94,217.247 352.611,220.094 C355.843,225.825 361.251,230.113 367.421,232.428 C363.009,227.994 359.482,223.213 357.665,218.121 C355.83,213.026 356.2,207.827 358.793,203.321 C361.397,198.804 366.214,194.517 370.178,189.385 C372.174,186.826 373.959,183.912 374.798,180.714 C375.606,177.513 375.212,174.153 373.635,171.508 C373.962,177.728 370.367,182.297 365.967,186.407 C361.635,190.616 356.232,194.469 352.576,200.605" fill="#2C1104"/>
        </g>
        <g id="Bean" display="none">
          <g>
            <path d="M375.304,265.257 C377.317,265.297 376.524,265.066 377.762,265.582 C381.241,268.064 382.691,271.759 383.125,275.869 C384.373,287.706 376.536,301.717 365.55,307.281 C361.885,309.138 358.072,310.245 353.527,309.005 C355.489,307.184 357.092,305.745 358.639,304.25 C362.708,300.32 364.601,295.56 363.654,290.191 C361.8,279.68 367.102,272.153 374.671,265.538 L374.671,265.537 L375.304,265.257 z" clip-path="url(#Clip_1)" filter="url(#Shadow_2)" fill="rgba(0,0,0,0.75)"/>
            <path d="M374.671,265.537 C375.26,265.023 377.062,265.083 377.762,265.582 C381.241,268.064 382.691,271.759 383.125,275.869 C384.373,287.706 376.536,301.717 365.55,307.281 C361.885,309.138 358.072,310.245 353.527,309.005 C355.489,307.184 357.092,305.745 358.639,304.25 C362.708,300.32 364.601,295.56 363.654,290.191 C361.8,279.68 367.102,272.153 374.671,265.538 z" fill="#6E3827"/>
            <path d="M347.527,257.239 L389.255,257.239 L389.255,317.531 L347.527,317.531 z M375.304,265.257 L374.671,265.537 L374.671,265.538 C367.102,272.153 361.8,279.68 363.654,290.191 C364.601,295.56 362.708,300.32 358.639,304.25 C357.092,305.745 355.489,307.184 353.527,309.005 C358.072,310.245 361.885,309.138 365.55,307.281 C376.536,301.717 384.373,287.706 383.125,275.869 C382.691,271.759 381.241,268.064 377.762,265.582 C376.524,265.066 377.317,265.297 375.304,265.257 z" clip-path="url(#Clip_3)" filter="url(#InnerShadow_4)" fill="rgba(0,0,0,0.449)"/>
          </g>
          <g>
            <path d="M366.248,261.064 C370.509,261.947 368.714,261.338 371.725,262.593 C369.736,264.636 368.172,266.389 366.452,267.981 C361.519,272.545 359.247,278.094 359.28,284.565 C359.293,287.073 359.369,289.59 359.165,292.091 C358.659,298.286 355.255,302.883 350.046,306.273 C349.311,306.751 347.829,306.699 346.986,306.314 C342.558,304.29 340.439,300.604 339.951,295.925 C338.745,284.35 347.242,268.799 357.889,263.127 L357.889,263.127 C361.198,261.315 362.633,261.304 366.248,261.064 z" clip-path="url(#Clip_5)" filter="url(#Shadow_6)" fill="rgba(0,0,0,0.75)"/>
            <path d="M357.889,263.127 C362.216,260.823 366.627,260.112 371.725,262.593 C369.736,264.636 368.172,266.389 366.452,267.981 C361.519,272.545 359.247,278.094 359.28,284.565 C359.293,287.073 359.369,289.59 359.165,292.091 C358.659,298.286 355.255,302.883 350.046,306.273 C349.311,306.751 347.829,306.699 346.986,306.314 C342.558,304.29 340.439,300.604 339.951,295.925 C338.745,284.35 347.242,268.799 357.889,263.127 z" fill="#6E3827"/>
            <path d="M333.837,253.064 L377.725,253.064 L377.725,314.617 L333.837,314.617 z M366.248,261.064 C362.633,261.304 361.198,261.315 357.889,263.127 L357.889,263.127 C347.242,268.799 338.745,284.35 339.951,295.925 C340.439,300.604 342.558,304.29 346.986,306.314 C347.829,306.699 349.311,306.751 350.046,306.273 C355.255,302.883 358.659,298.286 359.165,292.091 C359.369,289.59 359.293,287.073 359.28,284.565 C359.247,278.094 361.519,272.545 366.452,267.981 C368.172,266.389 369.736,264.636 371.725,262.593 C368.714,261.338 370.509,261.947 366.248,261.064 z" clip-path="url(#Clip_7)" filter="url(#InnerShadow_8)" fill="rgba(0,0,0,0.449)"/>
          </g>
        </g>
        <g id="Bean" display="none">
          <g>
            <path d="M393.937,304.349 C394.957,304.455 395.723,305.039 396.373,305.781 C398.401,309.544 398.072,313.5 396.648,317.379 C392.548,328.553 379.334,337.671 367.02,337.818 C362.912,337.868 359.002,337.18 355.469,334.062 C358.034,333.293 360.107,332.708 362.155,332.05 C367.54,330.317 371.338,326.881 372.857,321.644 C375.829,311.393 383.908,306.977 393.619,304.378 L393.619,304.378 L393.937,304.349 z" clip-path="url(#Clip_9)" filter="url(#Shadow_10)" fill="rgba(0,0,0,0.75)"/>
            <path d="M393.619,304.378 C394.374,304.176 395.965,305.025 396.373,305.781 C398.401,309.544 398.072,313.5 396.648,317.379 C392.548,328.553 379.334,337.671 367.02,337.818 C362.912,337.868 359.002,337.18 355.469,334.062 C358.034,333.293 360.107,332.708 362.155,332.05 C367.54,330.317 371.338,326.881 372.857,321.644 C375.829,311.393 383.908,306.977 393.619,304.378 z" fill="#6E3827"/>
            <path d="M349.469,296.349 L403.805,296.349 L403.805,345.821 L349.469,345.821 z M393.937,304.349 L393.619,304.378 L393.619,304.378 C383.908,306.977 375.829,311.393 372.857,321.644 C371.338,326.881 367.54,330.317 362.155,332.05 C360.107,332.708 358.034,333.293 355.469,334.062 C359.002,337.18 362.912,337.868 367.02,337.818 C379.334,337.671 392.548,328.553 396.648,317.379 C398.072,313.5 398.401,309.544 396.373,305.781 C395.723,305.039 394.957,304.455 393.937,304.349 z" clip-path="url(#Clip_11)" filter="url(#InnerShadow_12)" fill="rgba(0,0,0,0.449)"/>
          </g>
          <g>
            <path d="M379.809,296.713 C384.709,296.553 388.981,297.861 392.462,302.336 C389.776,303.292 387.599,304.176 385.353,304.846 C378.913,306.767 374.427,310.744 371.602,316.566 C370.507,318.822 369.465,321.115 368.178,323.269 C364.992,328.606 359.91,331.23 353.739,331.975 C352.869,332.08 351.562,331.38 350.975,330.662 C347.894,326.893 347.617,322.65 349.244,318.236 C353.267,307.316 367.752,297.107 379.809,296.713 L379.809,296.713 z" clip-path="url(#Clip_13)" filter="url(#Shadow_14)" fill="rgba(0,0,0,0.75)"/>
            <path d="M379.809,296.713 C384.709,296.553 388.981,297.861 392.462,302.336 C389.776,303.292 387.599,304.176 385.353,304.846 C378.913,306.767 374.427,310.744 371.602,316.566 C370.507,318.822 369.465,321.115 368.178,323.269 C364.992,328.606 359.91,331.23 353.739,331.975 C352.869,332.08 351.562,331.38 350.975,330.662 C347.894,326.893 347.617,322.65 349.244,318.236 C353.267,307.316 367.752,297.107 379.809,296.713 z" fill="#6E3827"/>
            <path d="M342.263,288.7 L398.462,288.7 L398.462,339.985 L342.263,339.985 z M379.809,296.713 L379.809,296.713 C367.752,297.107 353.267,307.316 349.244,318.236 C347.617,322.65 347.894,326.893 350.975,330.662 C351.562,331.38 352.869,332.08 353.739,331.975 C359.91,331.23 364.992,328.606 368.178,323.269 C369.465,321.115 370.507,318.822 371.602,316.566 C374.427,310.744 378.913,306.767 385.353,304.846 C387.599,304.176 389.776,303.292 392.462,302.336 C388.981,297.861 384.709,296.553 379.809,296.713 z" clip-path="url(#Clip_15)" filter="url(#InnerShadow_16)" fill="rgba(0,0,0,0.449)"/>
          </g>
        </g>
        <g id="Bean" display="none">
          <g>
            <path d="M296.337,296.183 C298.499,298.684 300.199,300.724 301.981,302.697 C306.668,307.885 312.758,310.386 320.048,309.363 C334.322,307.362 343.638,314.194 351.427,323.826 L351.427,323.826 C352.033,324.575 351.707,326.82 350.946,327.677 C347.161,331.943 342.033,333.641 336.492,334.06 C320.533,335.268 302.916,325.084 296.994,311.223 C295.019,306.6 294.062,301.814 296.337,296.183 z" clip-path="url(#Clip_17)" filter="url(#Shadow_18)" fill="rgba(0,0,0,0.75)"/>
            <path d="M351.428,323.826 C352.033,324.575 351.707,326.82 350.946,327.677 C347.161,331.943 342.033,333.641 336.492,334.06 C320.533,335.268 302.916,325.084 296.994,311.223 C295.019,306.6 294.062,301.814 296.337,296.183 C298.499,298.684 300.199,300.724 301.981,302.697 C306.668,307.885 312.758,310.386 320.048,309.363 C334.322,307.362 343.638,314.194 351.427,323.826 z" fill="#6E3827"/>
            <path d="M289.016,288.183 L357.743,288.183 L357.743,342.158 L289.016,342.158 z M296.337,296.183 C294.062,301.814 295.019,306.6 296.994,311.223 C302.916,325.084 320.533,335.268 336.492,334.06 C342.033,333.641 347.161,331.943 350.946,327.677 C351.707,326.82 352.033,324.575 351.427,323.826 L351.427,323.826 C343.638,314.194 334.322,307.362 320.048,309.363 C312.758,310.386 306.668,307.885 301.981,302.697 C300.199,300.724 298.499,298.684 296.337,296.183 z" clip-path="url(#Clip_19)" filter="url(#InnerShadow_20)" fill="rgba(0,0,0,0.449)"/>
          </g>
          <g>
            <path d="M316.529,280.153 C332.111,281.348 347.451,289.367 354.858,303.56 L354.859,303.56 C357.342,309.022 357.687,314.542 353.682,320.825 C351.229,318.285 349.103,316.284 347.215,314.092 C341.801,307.808 334.711,304.812 326.075,304.662 C322.728,304.604 319.36,304.625 316.052,304.296 C307.858,303.483 302.192,299.105 298.381,292.51 C297.844,291.58 298.115,289.734 298.744,288.694 C302.048,283.233 307.254,280.7 313.561,280.23 L316.529,280.153 z" clip-path="url(#Clip_21)" filter="url(#Shadow_22)" fill="rgba(0,0,0,0.75)"/>
            <path d="M354.859,303.56 C357.342,309.022 357.687,314.542 353.682,320.825 C351.229,318.285 349.103,316.284 347.215,314.092 C341.801,307.808 334.711,304.812 326.075,304.662 C322.728,304.604 319.36,304.625 316.052,304.296 C307.858,303.483 302.192,299.105 298.381,292.51 C297.844,291.58 298.115,289.734 298.744,288.694 C302.048,283.233 307.254,280.7 313.561,280.23 C329.165,279.068 348.747,290.118 354.859,303.56 z" fill="#6E3827"/>
            <path d="M292.094,272.153 L362.713,272.153 L362.713,328.825 L292.094,328.825 z M316.529,280.153 L313.561,280.23 C307.254,280.7 302.048,283.233 298.744,288.694 C298.115,289.734 297.844,291.58 298.381,292.51 C302.192,299.105 307.858,303.483 316.052,304.296 C319.36,304.625 322.728,304.604 326.075,304.662 C334.711,304.812 341.801,307.808 347.215,314.092 C349.103,316.284 351.229,318.285 353.682,320.825 C357.687,314.542 357.342,309.022 354.859,303.56 L354.858,303.56 C347.451,289.367 332.111,281.348 316.529,280.153 z" clip-path="url(#Clip_23)" filter="url(#InnerShadow_24)" fill="rgba(0,0,0,0.449)"/>
          </g>
        </g>
      </g>
      <path d="M73.724,207.866 L71.389,187.658 L194.881,228.941 L197.011,247.372 L84.245,298.913 L81.897,278.594 L172.825,239.272 z" fill="#2D1104"/>
      <g id="top_words">
        <path d="M280.664,90.49 L280.674,90.668 C280.692,90.97 280.578,93.124 280.535,93.292 C280.487,93.481 264.972,95.317 264.772,95.157 L264.676,95.081 L264.739,93.774 C264.794,92.614 264.808,92.457 264.861,92.379 C264.901,92.32 267.504,91.996 272.792,91.391 L280.664,90.49 z" fill="#9A9A9A"/>
        <path d="M307.501,81.703 L306.511,72.077 L309.57,71.762 L312.231,97.63 L309.172,97.945 L308.931,95.601 Q308.308,97.059 307.11,97.913 Q305.913,98.767 304.25,98.938 Q300.876,99.286 298.669,96.866 Q296.463,94.447 295.99,89.842 Q295.523,85.304 297.202,82.518 Q298.881,79.733 302.239,79.388 Q303.918,79.215 305.273,79.806 Q306.627,80.398 307.501,81.703 z M299.222,89.577 Q299.588,93.135 300.905,94.83 Q302.221,96.526 304.432,96.299 Q306.644,96.071 307.611,94.124 Q308.578,92.176 308.216,88.652 Q307.851,85.111 306.509,83.409 Q305.166,81.707 302.955,81.935 Q300.744,82.162 299.8,84.091 Q298.856,86.019 299.222,89.577 z" fill="#9A9A9A"/>
        <path d="M317.923,89.921 L316.736,78.384 L319.795,78.069 L320.982,89.607 Q321.24,92.117 322.251,93.206 Q323.262,94.295 325.124,94.103 Q327.285,93.881 328.275,92.242 Q329.266,90.602 328.974,87.76 L327.891,77.236 L330.967,76.92 L332.879,95.506 L329.803,95.823 L329.516,93.03 Q328.867,94.726 327.548,95.702 Q326.228,96.678 324.35,96.871 Q321.49,97.165 319.901,95.438 Q318.313,93.712 317.923,89.921 z" fill="#9A9A9A"/>
        <path d="M350.231,75.559 L350.539,78.552 Q349.147,77.922 347.778,77.677 Q346.409,77.431 345.029,77.573 Q342.951,77.787 341.998,78.565 Q341.044,79.344 341.186,80.724 Q341.315,81.971 342.143,82.507 Q342.971,83.043 346.073,83.312 L347.327,83.419 Q349.649,83.617 350.955,84.793 Q352.26,85.969 352.474,88.047 Q352.758,90.807 350.956,92.563 Q349.154,94.319 345.663,94.678 Q344.283,94.82 342.74,94.685 Q341.197,94.55 339.375,94.149 L339.05,90.99 Q340.853,91.695 342.461,91.975 Q344.069,92.255 345.466,92.111 Q347.494,91.903 348.523,90.965 Q349.553,90.028 349.4,88.548 Q349.181,86.42 345.025,86.024 L344.888,86.005 L343.717,85.89 Q341.021,85.647 339.681,84.55 Q338.342,83.452 338.125,81.341 Q337.85,78.664 339.512,77.023 Q341.174,75.382 344.533,75.037 Q346.029,74.883 347.437,75.015 Q348.845,75.148 350.231,75.559 z" fill="#9A9A9A"/>
        <path d="M364.151,68.13 L364.695,73.416 L371.644,72.701 L371.889,75.079 L364.939,75.794 L365.979,85.902 Q366.191,87.963 367.056,88.697 Q367.922,89.432 369.867,89.231 L373.308,88.877 L373.559,91.321 L369.819,91.706 Q366.378,92.06 364.822,90.826 Q363.267,89.591 362.92,86.216 L361.88,76.108 L356.91,76.62 L356.665,74.242 L361.636,73.731 L361.092,68.444 z" fill="#9A9A9A"/>
        <path d="M382.677,83.596 L388.826,82.997 L389.22,89.71 L383.368,90.312 z" fill="#9A9A9A"/>
        <path d="M414.941,86.107 Q413.784,86.948 412.516,87.44 Q411.248,87.931 409.884,88.072 Q405.562,88.516 402.86,86.173 Q400.157,83.831 399.685,79.242 Q399.213,74.654 401.382,71.81 Q403.551,68.966 407.873,68.521 Q409.22,68.382 410.536,68.6 Q411.852,68.817 413.224,69.415 L413.554,72.624 Q412.229,71.668 410.958,71.312 Q409.686,70.955 408.14,71.114 Q405.264,71.41 403.909,73.431 Q402.555,75.452 402.91,78.91 Q403.264,82.352 405.011,84.062 Q406.758,85.772 409.618,85.478 Q411.214,85.314 412.427,84.694 Q413.64,84.073 414.614,82.931 z" fill="#9A9A9A"/>
        <path d="M426.444,69.231 Q424.116,69.471 423.106,71.406 Q422.095,73.341 422.461,76.899 Q422.825,80.44 424.21,82.137 Q425.594,83.835 427.921,83.595 Q430.266,83.354 431.275,81.411 Q432.285,79.467 431.921,75.926 Q431.555,72.368 430.171,70.679 Q428.788,68.99 426.444,69.231 z M426.177,66.638 Q430.051,66.24 432.362,68.539 Q434.673,70.838 435.163,75.592 Q435.653,80.364 433.866,83.076 Q432.078,85.789 428.188,86.189 Q424.315,86.587 422.012,84.296 Q419.71,82.004 419.219,77.233 Q418.73,72.478 420.517,69.757 Q422.303,67.036 426.177,66.638 z" fill="#9A9A9A"/>
        <path d="M453.407,56.965 L453.669,59.509 L450.194,59.866 Q448.548,60.036 447.978,60.775 Q447.407,61.514 447.583,63.226 L447.752,64.872 L454.153,64.214 L454.397,66.591 L447.997,67.249 L449.668,83.492 L446.609,83.807 L444.938,67.564 L439.967,68.076 L439.723,65.698 L444.693,65.187 L444.56,63.89 Q444.245,60.831 445.501,59.24 Q446.757,57.649 449.733,57.343 z" fill="#9A9A9A"/>
        <path d="M473.906,54.857 L474.167,57.4 L470.693,57.758 Q469.047,57.927 468.476,58.666 Q467.905,59.405 468.081,61.118 L468.251,62.763 L474.651,62.105 L474.896,64.482 L468.495,65.141 L470.166,81.383 L467.107,81.698 L465.436,65.455 L460.465,65.967 L460.221,63.589 L465.192,63.078 L465.058,61.781 Q464.744,58.722 466,57.132 Q467.256,55.541 470.231,55.235 z" fill="#9A9A9A"/>
        <path d="M496.898,67.679 L497.051,69.175 L483.802,70.538 L483.812,70.638 Q484.07,74.459 485.829,75.958 Q487.588,77.457 490.48,77.16 Q491.943,77.009 493.492,76.38 Q495.04,75.75 496.754,74.616 L497.067,77.658 Q495.395,78.553 493.811,79.077 Q492.227,79.601 490.714,79.757 Q486.375,80.203 483.663,77.853 Q480.952,75.502 480.482,70.93 Q480.023,66.475 482.144,63.569 Q484.264,60.662 488.254,60.252 Q491.812,59.886 494.113,62.085 Q496.414,64.285 496.898,67.679 z M493.746,67.096 Q493.348,65.188 491.999,63.907 Q490.649,62.627 488.388,62.859 Q486.177,63.087 484.897,64.697 Q483.618,66.307 483.673,68.149 z" fill="#9A9A9A"/>
        <path d="M517.396,65.571 L517.55,67.067 L504.3,68.43 L504.31,68.53 Q504.569,72.35 506.327,73.849 Q508.086,75.349 510.979,75.051 Q512.442,74.901 513.99,74.271 Q515.538,73.641 517.253,72.507 L517.566,75.549 Q515.894,76.444 514.309,76.968 Q512.725,77.492 511.212,77.648 Q506.873,78.094 504.162,75.744 Q501.45,73.394 500.98,68.822 Q500.522,64.366 502.642,61.46 Q504.762,58.554 508.752,58.143 Q512.31,57.777 514.611,59.977 Q516.912,62.176 517.396,65.571 z M514.245,64.987 Q513.847,63.08 512.497,61.799 Q511.147,60.518 508.886,60.75 Q506.675,60.978 505.396,62.588 Q504.117,64.198 504.172,66.04 z" fill="#9A9A9A"/>
        <path d="M171.654,111.941 L171.239,107.902 Q172.939,109.128 174.67,109.65 Q176.401,110.173 178.181,109.989 Q180.629,109.738 181.464,108.363 Q182.3,106.989 181.943,103.515 L180.471,89.208 L173.951,89.878 L173.651,86.969 L183.629,85.943 L185.4,103.159 Q185.896,107.985 184.297,110.173 Q182.697,112.361 178.47,112.796 Q176.827,112.965 175.163,112.756 Q173.498,112.547 171.654,111.941 z" fill="#9A9A9A"/>
        <path d="M199.795,92.962 Q197.399,93.208 196.359,95.2 Q195.318,97.192 195.695,100.855 Q196.07,104.5 197.495,106.247 Q198.92,107.994 201.316,107.748 Q203.729,107.5 204.768,105.499 Q205.808,103.498 205.433,99.853 Q205.056,96.191 203.632,94.452 Q202.208,92.713 199.795,92.962 z M199.52,90.292 Q203.508,89.882 205.887,92.248 Q208.267,94.615 208.77,99.51 Q209.275,104.421 207.435,107.214 Q205.595,110.006 201.591,110.418 Q197.603,110.828 195.233,108.469 Q192.863,106.11 192.358,101.198 Q191.854,96.304 193.694,93.503 Q195.533,90.702 199.52,90.292 z" fill="#9A9A9A"/>
        <path d="M228.864,95.108 L230.085,106.985 L226.919,107.311 L225.698,95.434 Q225.432,92.849 224.4,91.728 Q223.368,90.606 221.434,90.805 Q219.226,91.032 218.198,92.72 Q217.169,94.408 217.471,97.335 L218.585,108.168 L215.436,108.492 L212.697,81.863 L215.846,81.539 L216.909,91.876 Q217.578,90.146 218.929,89.151 Q220.279,88.156 222.247,87.954 Q225.174,87.653 226.818,89.429 Q228.462,91.206 228.864,95.108 z" fill="#9A9A9A"/>
        <path d="M249.965,92.937 L251.187,104.814 L248.021,105.14 L246.799,93.263 Q246.533,90.679 245.501,89.557 Q244.469,88.435 242.535,88.634 Q240.327,88.861 239.299,90.549 Q238.271,92.238 238.572,95.164 L239.686,105.997 L236.537,106.321 L234.565,87.154 L237.714,86.83 L238.01,89.705 Q238.68,87.976 240.03,86.981 Q241.381,85.986 243.349,85.783 Q246.275,85.482 247.919,87.259 Q249.563,89.035 249.965,92.937 z" fill="#9A9A9A"/>
      </g>
    </g>
    <text transform="matrix(0.996, -0.094, 0.094, 0.996, 212.945, 100.208)" display="none">
      <tspan x="-42.144" y="7.151" font-family="Menlo-Regular" font-size="35" fill="#9A9A9A">John</tspan>
    </text>
    <text transform="matrix(0.996, -0.094, 0.094, 0.996, 407.01, 77.182)" display="none">
      <tspan x="-112.583" y="11" font-family="Menlo-Regular" font-size="34" fill="#9A9A9A">dust.coffee</tspan>
    </text>
  </g>
</svg>
